<?xml version="1.0" encoding="utf-8"?>
<!-- Generator: Adobe Illustrator 22.0.0, SVG Export Plug-In . SVG Version: 6.00 Build 0)  -->
<svg version="1.1" id="Capa_1" xmlns="http://www.w3.org/2000/svg" xmlns:xlink="http://www.w3.org/1999/xlink" x="0px" y="0px"
	 viewBox="0 0 513 205.5" style="enable-background:new 0 0 513 205.5;" xml:space="preserve">
<style type="text/css">
	.st0{fill:#013556;}
	.st1{fill:#FFFFFF;}
	.st2{fill:#00A9EB;}
	.st3{fill:#005AA3;}
	.st4{fill:#2184BA;}
	.st5{display:none;fill:#005AA3;}
	.st6{display:none;fill:#2184BA;}
</style>
<g>
	<g>
		<polygon class="st0" points="285.6,53.1 298.3,70 298.3,53.1 305.2,53.1 305.2,81.2 298.7,81.2 286,64.4 286,81.2 279.1,81.2 
			279.1,53.1 		"/>
		<path class="st0" d="M329.4,76.2h-12.2l-2,5h-7.5l12.1-28.1h7.5l11.8,28.1h-7.8L329.4,76.2z M327.2,70.6l-3.8-10l-3.9,10H327.2z"
			/>
		<g>
			<path class="st0" d="M354.2,59.1c-4.3,0-7.6,3.4-7.6,7.9c0,4.5,3.3,8,7.6,8c2.3,0,5-1.3,7-3.3l4.3,4.6c-3,3.2-7.5,5.2-11.7,5.2
				c-8.5,0-14.8-6.2-14.8-14.4c0-8.1,6.5-14.2,15-14.2c4.2,0,8.5,1.8,11.4,4.8l-4.3,5.1C359.4,60.6,356.7,59.1,354.2,59.1"/>
			<rect x="368.6" y="53.1" class="st0" width="7.3" height="28.1"/>
			<path class="st0" d="M410,67.1c0,8.2-6.5,14.4-15.2,14.4c-8.7,0-15.2-6.2-15.2-14.4c0-8.2,6.5-14.2,15.2-14.2
				C403.5,52.9,410,59,410,67.1 M387.2,67.2c0,4.6,3.6,8.1,7.7,8.1c4.2,0,7.6-3.5,7.6-8.1c0-4.6-3.4-8-7.6-8
				C390.7,59.1,387.2,62.6,387.2,67.2"/>
			<polygon class="st0" points="420.1,53.1 432.9,70 432.9,53.1 439.7,53.1 439.7,81.2 433.3,81.2 420.5,64.4 420.5,81.2 
				413.7,81.2 413.7,53.1 			"/>
			<path class="st0" d="M463.9,76.2h-12.2l-2,5h-7.5l12.1-28.1h7.5l11.8,28.1h-7.8L463.9,76.2z M461.7,70.6l-3.8-10l-3.9,10H461.7z"
				/>
			<polygon class="st0" points="483.5,53.1 483.5,75 495.4,75 495.4,81.2 476.2,81.2 476.2,53.1 			"/>
			<path class="st0" d="M283.4,158.4c-0.3-1.8-0.4-3.5-0.2-5.2c1.2-10.8,1.5-21.6,3.4-32.3c0.3-1.7,0-3.5,2.5-3.6
				c2.5,0,3.8,1.6,4.1,3.5c1.2,5.5,2.9,10.9,4.4,16.2c0.2,0.6,0.2,1.1,0.4,1.7c0.2,0.7,0.7,1.1,1,1.7c0.3-0.6,0.8-1.2,0.9-1.8
				c2-7.2,3.9-14.4,4.7-21.8l1.2-9.2c0.2-1.8,0.2-4,2.9-3.4c2.5,0.4,3.8,2,3.3,4.5c-0.9,4.7-2.5,9.2-2.9,14
				c-1.3,10.4-4.6,20.3-6.3,30.5c-0.2,1.3-0.5,2.4-1.8,2.5c-1.8,0.3-3.2-0.5-3.8-2c-1.2-3.1-2.1-6.4-3.5-9.5
				c-0.9-2.6-0.9-5.5-2.7-7.8c-2.4,2.4-0.8,5.3-1.5,7.8c-0.5,1.5-0.2,3.1-0.5,5v8.8c0,1.5-0.3,3-2,3.1
				C285.3,161.3,283.8,160.2,283.4,158.4"/>
			<path class="st0" d="M314.2,156c-1-3.6-1-7.2-1-10.9c0.7-11.2,1.6-22.3,3.6-33.3c0.3-1.6,0.3-3.6,2.7-2.8c2,0.6,3.3,1.6,2.8,4.3
				c-1.8,10.8-3.4,21.5-3.9,32.5c-0.1,0.4-0.2,1-0.1,1.5c0.2,1-0.6,2.6,0.8,2.8c1,0.2,1.2-1.3,1.7-2.1c5.2-9.4,7.3-19.7,9.3-30.1
				c0.5-2.1,0.9-4.3,1.1-6.5c0.2-1.3,0.2-2.8,2.1-2.5c1.9,0.3,3.4,1.2,2.9,3.5c-1.7,8.7-1.5,17.6-2.2,26.4
				c-0.6,5.5-1.7,11.1-0.4,16.7c0.4,1.5,0,2.7-1.8,2.8c-1.9,0.1-3.6-0.3-3.9-2.5c-0.2-2.1-0.1-4.4-0.2-6.5c0-0.4-0.1-1.2-0.3-1.3
				c-0.8-0.3-0.9,0.6-1.1,1.1c-1.3,2.7-2.6,5.5-4,8.2c-0.8,1.6-2,3-4.3,2.5C315.7,159.3,314.8,157.8,314.2,156"/>
			<path class="st0" d="M347.5,155.6c0-10.1,0.4-20,0.9-30.1c0.1-2.7,0.1-5.4,0.5-8c0.2-2.6-0.7-3.7-3.3-3.4c-2,0.1-3.9,0.1-5.3-1.7
				c-0.5-0.8-0.9-1.5-0.6-2.4c0.5-0.9,1.2-0.8,1.9-0.8c4.7,0,9.4,0.4,14.2-0.1c0.8-0.1,1.8,0.5,2.7,0.9c1.1,0.4,1.8,1.5,1.7,2.6
				c0,1.2-1.3,1.3-2.2,1.3c-4-0.2-4.5,2.2-4.6,5.5c0,12-1.5,24-0.8,36c0.1,1.5,1,3.8-1.8,3.9C348.5,159.4,347.5,158.1,347.5,155.6"
				/>
			<path class="st0" d="M380.5,165.3c-0.7-0.9-0.9-2.2-1.1-3.4l-7.1-32.8c-0.1-0.6-0.2-1.2-0.4-1.8c-0.3-0.6-0.2-1.7-1.2-1.5
				c-0.9,0.2-0.6,1.2-0.6,1.9c0,3.1-0.8,22.5-0.9,29.1c0,1.1,0.4,2.7-1.3,2.8c-1.7,0.2-3.3-0.2-3.8-2c-0.3-0.9-0.4-2-0.3-2.9
				c1.5-13.8,0.8-27.7,1.6-41.6l0.3-2.5c0-2.9,1-5.6,3.8-6.3c2.9-0.8,6.1-0.1,8.4,2.4c2.8,2.9,4.3,6.8,3.7,10.4
				c-0.3,2.2-1.6,4.4-3.7,5.9c-1.1,0.9-1.2,2.1-0.9,3.6L383,156c0.4,2.6,1.3,4.9,2.5,7.3c0.6,1.2,1.3,3-0.3,3.8
				C383.2,168.1,381.6,167,380.5,165.3 M376.7,114.4c0.2-2.2-1-4-2.7-5.3c-1.1-0.8-2.4-0.9-2.6,1l-1,7.2c0.3,1.5-0.6,4,2.6,2.8
				C375.5,119.2,376.4,116.8,376.7,114.4"/>
			<path class="st0" d="M390.6,157.1c-0.3-2.2-0.6-4.6-0.6-6.9c-0.1-3.2,0-6.5,0-9.7c-0.6-9.4-1.2-10.9,0.9-20
				c0.3-1.7,0.5-3.6,3-2.9c2.2,0.7,2.9,1.9,2.2,4.4c-2.5,10.3-1.8,13-1.7,23.5c0,3.8,0.2,7.5,1,11.2c0.3,1.3,1.1,3.2-1.1,3.6
				C392.4,160.3,390.9,159.2,390.6,157.1 M392.4,110.8c0.1-2.1,2-1.8,3.4-2c1.2-0.1,2.2,0.6,2.5,1.8c-0.3,2-1.2,3-3.2,3
				C393.2,113.5,392.3,112.5,392.4,110.8"/>
			<path class="st0" d="M405.1,153.6c-2-3-3.5-7.4-3.5-11.8c0.6-11.2,3.9-22.2,9.7-32.4c2.5-4.3,7.6-5.3,10.8-2.4
				c0.4,0.4,1,0.8,0.9,1.6c0,0.7-0.6,1.2-1.2,1.1c-3.7-0.6-5.2,2.5-6.4,4.7c-5.2,9.1-8.2,19.2-8.2,29.8c0,2.3,0.8,4.6,1.5,6.7
				c1,3,3.1,3.7,5.4,1.5c1.2-1.1,2-1.6,3.5-1c0.9,0.6,1.6,1.2,1.6,2.4c-0.1,1.3-0.8,2-1.9,2.6C412.6,159.1,408.3,158.1,405.1,153.6"
				/>
			<path class="st0" d="M425.2,157.1c-0.3-2.2-0.6-4.6-0.6-6.9c-0.1-3.2,0-6.5,0-9.7c-0.6-9.4-1.2-10.9,0.9-20
				c0.3-1.7,0.5-3.6,3-2.9c2.2,0.7,2.9,1.9,2.2,4.4c-2.5,10.3-1.8,13-1.7,23.5c0,3.8,0.2,7.5,1,11.2c0.3,1.3,1.1,3.2-1.1,3.6
				C427,160.3,425.5,159.2,425.2,157.1 M427,110.8c0.1-2.1,2-1.8,3.4-2c1.2-0.1,2.2,0.6,2.5,1.8c-0.3,2-1.2,3-3.2,3
				C427.8,113.5,426.9,112.5,427,110.8"/>
			<path class="st0" d="M436.8,141.4c0.6-7.4,1.7-15.1,4.1-22.5c0.8-2.6,1.3-5.7,4.9-6.1c4-0.3,9,2.4,10.3,5.5
				c2.9,6.5,3,13.2,1.2,19.9c-1.6,6.3-4.5,12-8.3,17.2c-2.7,3.8-5.9,3.8-8.7,0.1C437.1,151.5,437,146.6,436.8,141.4 M445.2,150.9
				c5.8-6.5,7.6-14.4,7.6-23c0-1.7,0.3-3.5-0.1-5c-0.5-1.7-0.1-4.3-2.7-4.6c-2.6-0.3-3.6,1.9-4.1,3.8c-1,2.8-1.7,5.8-2.4,8.9
				c-1.3,6.3-2.1,12.7-1,19.2c0.1,0.8,0.1,1.8,1.1,2C444.4,152.3,444.6,151.3,445.2,150.9 M442.5,105.4c-0.6-1.5,1-1.7,2-2
				c2.9-1.1,5.8-2.1,8.8-3.1c1.2-0.3,2.5-0.4,3.4,0.6c0.7,0.7,1.1,1.7,0,2.1c-3.6,1.6-7.4,3-11,4.5
				C444.2,107.3,442.9,106.9,442.5,105.4"/>
			<path class="st0" d="M463.4,158.4c-0.3-1.8-0.5-3.5-0.2-5.2c1.2-10.8,1.5-21.6,3.4-32.3c0.3-1.7,0-3.5,2.5-3.6
				c2.5,0,3.8,1.6,4.1,3.5c1.2,5.5,2.9,10.9,4.4,16.2c0.2,0.6,0.2,1.1,0.5,1.7c0.2,0.7,0.7,1.1,1,1.7c0.3-0.6,0.8-1.2,0.9-1.8
				c2-7.2,3.9-14.4,4.7-21.8l1.2-9.2c0.2-1.8,0.2-4,2.9-3.4c2.5,0.4,3.8,2,3.2,4.5c-0.9,4.7-2.5,9.2-2.9,14
				c-1.3,10.4-4.6,20.3-6.3,30.5c-0.2,1.3-0.4,2.4-1.8,2.5c-1.8,0.3-3.3-0.5-3.8-2c-1.2-3.1-2.1-6.4-3.5-9.5
				c-0.9-2.6-0.9-5.5-2.7-7.8c-2.4,2.4-0.8,5.3-1.5,7.8c-0.4,1.5-0.2,3.1-0.4,5v8.8c0,1.5-0.3,3-2,3.1
				C465.3,161.3,463.8,160.2,463.4,158.4"/>
			<path class="st0" d="M367.1,92.5c0,2.5-1.6,3.9-4.3,3.9h-1.9v2.9h-2.8V88.8h4.7C365.5,88.8,367.1,90.2,367.1,92.5 M364.4,92.6
				c0-1-0.7-1.6-1.8-1.6h-1.8v3.2h1.8C363.8,94.2,364.4,93.7,364.4,92.6"/>
			<path class="st0" d="M379.2,94.1c0,3.1-2.4,5.4-5.7,5.4c-3.3,0-5.7-2.3-5.7-5.4c0-3.1,2.4-5.4,5.7-5.4
				C376.7,88.7,379.2,91,379.2,94.1 M370.6,94.1c0,1.7,1.3,3.1,2.9,3.1c1.6,0,2.9-1.3,2.9-3.1c0-1.7-1.3-3-2.9-3
				C371.9,91.1,370.6,92.4,370.6,94.1"/>
			<path class="st0" d="M386.9,99.4l-1.5-2.9h-0.1h-2v2.9h-2.8V88.8h4.8c2.8,0,4.4,1.4,4.4,3.7c0,1.6-0.7,2.8-1.9,3.4l2.2,3.5H386.9
				z M383.3,94.2h2c1.1,0,1.8-0.6,1.8-1.6c0-1-0.6-1.6-1.8-1.6h-2V94.2z"/>
			<polygon class="st0" points="398.8,88.8 398.8,97 403.3,97 403.3,99.4 396,99.4 396,88.8 			"/>
			<path class="st0" d="M411.6,97.5h-4.6l-0.7,1.9h-2.8l4.5-10.6h2.8l4.4,10.6h-2.9L411.6,97.5z M410.8,95.4l-1.4-3.8l-1.5,3.8
				H410.8z"/>
			<rect x="286" y="90.6" class="st0" width="66.3" height="2.8"/>
			<rect x="421.9" y="90.6" class="st0" width="66.3" height="2.8"/>
			<rect x="283.4" y="167.5" class="st0" width="206.1" height="19.8"/>
			<polygon class="st1" points="291.8,182.4 290.4,182.4 290.4,173.3 292.4,173.3 293.7,179.8 294.9,173.3 296.8,173.3 296.8,182.4 
				295.4,182.4 295.4,176.7 294.2,182.4 293.1,182.4 291.8,176.7 			"/>
			<path class="st1" d="M302.4,180.1c0,0.6-0.2,1.2-0.5,1.6c-0.2,0.3-0.5,0.5-0.9,0.6c-0.2,0.1-0.5,0.1-0.8,0.1
				c-0.5,0-1-0.1-1.3-0.4c-0.3-0.2-0.5-0.5-0.7-0.9c-0.2-0.4-0.3-0.8-0.3-1.3l1.3-0.1c0.1,0.5,0.2,0.9,0.4,1.1
				c0.2,0.2,0.4,0.3,0.6,0.3c0.3,0,0.5-0.2,0.7-0.4c0.1-0.1,0.1-0.3,0.1-0.6c0-0.4-0.2-0.8-0.5-1.1c-0.3-0.3-0.7-0.6-1.2-1.1
				c-0.5-0.4-0.8-0.8-1-1.2c-0.2-0.4-0.3-0.8-0.3-1.3c0-0.8,0.3-1.5,0.8-1.9c0.3-0.3,0.8-0.4,1.3-0.4c0.5,0,0.9,0.1,1.3,0.3
				c0.3,0.2,0.5,0.4,0.7,0.7c0.2,0.3,0.3,0.7,0.3,1l-1.3,0.2c0-0.4-0.1-0.7-0.3-0.9c-0.1-0.1-0.3-0.2-0.5-0.2
				c-0.3,0-0.4,0.1-0.6,0.3c-0.1,0.2-0.2,0.4-0.2,0.7c0,0.4,0.2,0.8,0.5,1.3c0.1,0.2,0.3,0.4,0.6,0.6c0.3,0.3,0.5,0.5,0.6,0.6
				c0.3,0.3,0.6,0.7,0.8,1c0.1,0.2,0.2,0.3,0.2,0.4C302.4,179.6,302.4,179.9,302.4,180.1"/>
			<path class="st1" d="M305.7,173.3c0.7,0,1.2,0.2,1.6,0.6c0.4,0.4,0.6,0.9,0.6,1.5v1.3c0,0.6-0.2,1.1-0.6,1.5s-0.9,0.6-1.5,0.6
				h-0.8v3.4h-1.4v-9.1H305.7z M306.5,175.5c0-0.2-0.1-0.4-0.2-0.6c-0.1-0.1-0.3-0.2-0.6-0.2h-0.8v2.9h0.8c0.2,0,0.4-0.1,0.6-0.2
				c0.2-0.2,0.2-0.3,0.2-0.6V175.5z"/>
			<path class="st1" d="M309.8,180.3l-0.3,2.1h-1.4l1.5-9.1h1.9l1.5,9.1h-1.4l-0.3-2.1H309.8z M310.6,175.4l-0.5,3.6h1L310.6,175.4z
				"/>
			<path class="st1" d="M318.3,180.1c0,0.6-0.2,1.2-0.5,1.6c-0.2,0.3-0.5,0.5-0.9,0.6c-0.2,0.1-0.5,0.1-0.8,0.1
				c-0.5,0-1-0.1-1.3-0.4c-0.3-0.2-0.5-0.5-0.7-0.9c-0.2-0.4-0.3-0.8-0.3-1.3l1.3-0.1c0.1,0.5,0.2,0.9,0.4,1.1
				c0.2,0.2,0.4,0.3,0.6,0.3c0.3,0,0.5-0.2,0.7-0.4c0.1-0.1,0.1-0.3,0.1-0.6c0-0.4-0.2-0.8-0.5-1.1c-0.3-0.3-0.7-0.6-1.2-1.1
				c-0.5-0.4-0.8-0.8-1-1.2c-0.2-0.4-0.3-0.8-0.3-1.3c0-0.8,0.3-1.5,0.8-1.9c0.3-0.3,0.8-0.4,1.3-0.4c0.5,0,0.9,0.1,1.3,0.3
				c0.3,0.2,0.5,0.4,0.7,0.7c0.2,0.3,0.3,0.7,0.3,1l-1.3,0.2c0-0.4-0.1-0.7-0.3-0.9c-0.1-0.1-0.3-0.2-0.5-0.2
				c-0.2,0-0.4,0.1-0.6,0.3c-0.1,0.2-0.2,0.4-0.2,0.7c0,0.4,0.2,0.8,0.5,1.3c0.1,0.2,0.3,0.4,0.6,0.6c0.3,0.3,0.5,0.5,0.6,0.6
				c0.3,0.3,0.6,0.7,0.8,1c0.1,0.2,0.2,0.3,0.2,0.4C318.2,179.6,318.3,179.9,318.3,180.1"/>
			<path class="st2" d="M320.1,177.8c0-0.6,0.5-1.1,1.1-1.1c0.6,0,1.1,0.5,1.1,1.1c0,0.6-0.5,1.1-1.1,1.1
				C320.5,178.9,320.1,178.4,320.1,177.8"/>
			<polygon class="st1" points="325.4,182.4 324,182.4 324,173.3 325.9,173.3 327.2,179.8 328.4,173.3 330.3,173.3 330.3,182.4 
				329,182.4 329,176.7 327.8,182.4 326.7,182.4 325.4,176.7 			"/>
			<rect x="331.6" y="173.3" class="st1" width="1.4" height="9.1"/>
			<path class="st1" d="M338.5,180.2c0,0.6-0.2,1.1-0.6,1.5c-0.4,0.4-0.9,0.6-1.5,0.6h-2.1v-9.1h2.1c0.6,0,1.1,0.2,1.5,0.6
				c0.4,0.4,0.6,0.9,0.6,1.5V180.2z M335.5,181h0.8c0.2,0,0.4-0.1,0.6-0.2c0.2-0.2,0.2-0.3,0.2-0.6v-4.7c0-0.2-0.1-0.4-0.2-0.6
				c-0.2-0.2-0.3-0.2-0.5-0.2h-0.8V181z"/>
			<polygon class="st1" points="339.6,182.4 339.6,173.3 343.5,173.3 343.5,174.7 341,174.7 341,177.2 342.9,177.2 342.9,178.5 
				341,178.5 341,181 343.5,181 343.5,182.4 			"/>
			<path class="st1" d="M349,180.1c0,0.6-0.2,1.2-0.5,1.6c-0.2,0.3-0.5,0.5-0.9,0.6c-0.2,0.1-0.5,0.1-0.8,0.1c-0.5,0-1-0.1-1.3-0.4
				c-0.3-0.2-0.5-0.5-0.7-0.9c-0.2-0.4-0.3-0.8-0.3-1.3l1.3-0.1c0.1,0.5,0.2,0.9,0.4,1.1c0.2,0.2,0.3,0.3,0.6,0.3
				c0.3,0,0.5-0.2,0.7-0.4c0.1-0.1,0.1-0.3,0.1-0.6c0-0.4-0.2-0.8-0.5-1.1c-0.3-0.3-0.7-0.6-1.2-1.1c-0.5-0.4-0.8-0.8-1-1.2
				c-0.2-0.4-0.3-0.8-0.3-1.3c0-0.8,0.3-1.5,0.8-1.9c0.3-0.3,0.8-0.4,1.3-0.4c0.5,0,0.9,0.1,1.3,0.3c0.3,0.2,0.5,0.4,0.7,0.7
				c0.2,0.3,0.3,0.7,0.3,1l-1.3,0.2c0-0.4-0.1-0.7-0.3-0.9c-0.1-0.1-0.3-0.2-0.5-0.2c-0.2,0-0.4,0.1-0.6,0.3
				c-0.1,0.2-0.2,0.4-0.2,0.7c0,0.4,0.2,0.8,0.5,1.3c0.1,0.2,0.3,0.4,0.6,0.6c0.3,0.3,0.5,0.5,0.6,0.6c0.3,0.3,0.6,0.7,0.8,1
				c0.1,0.2,0.2,0.3,0.2,0.4C348.9,179.6,349,179.9,349,180.1"/>
			<path class="st2" d="M350.8,177.8c0-0.6,0.5-1.1,1.1-1.1c0.6,0,1.1,0.5,1.1,1.1c0,0.6-0.5,1.1-1.1,1.1
				C351.3,178.9,350.8,178.4,350.8,177.8"/>
			<polygon class="st1" points="356.1,182.4 354.7,182.4 354.7,173.3 356.7,173.3 357.9,179.8 359.2,173.3 361,173.3 361,182.4 
				359.7,182.4 359.7,176.7 358.5,182.4 357.4,182.4 356.1,176.7 			"/>
			<rect x="362.3" y="173.3" class="st1" width="1.4" height="9.1"/>
			<polygon class="st1" points="366.4,173.3 368.2,179.4 368.2,173.3 369.6,173.3 369.6,182.4 368.1,182.4 366.2,176.6 366.2,182.4 
				364.9,182.4 364.9,173.3 			"/>
			<polygon class="st1" points="370.8,182.4 370.8,173.3 374.7,173.3 374.7,174.7 372.2,174.7 372.2,177.2 374,177.2 374,178.5 
				372.2,178.5 372.2,181 374.7,181 374.7,182.4 			"/>
			<path class="st1" d="M379.9,180.2c0,0.6-0.2,1.1-0.6,1.5c-0.4,0.4-0.9,0.6-1.5,0.6h-2.1v-9.1h2.1c0.6,0,1.1,0.2,1.5,0.6
				c0.4,0.4,0.6,0.9,0.6,1.5V180.2z M377,181h0.8c0.2,0,0.4-0.1,0.6-0.2c0.2-0.2,0.2-0.3,0.2-0.6v-4.7c0-0.2-0.1-0.4-0.2-0.6
				c-0.2-0.2-0.3-0.2-0.6-0.2H377V181z"/>
			<path class="st1" d="M383.3,182.5c-0.6,0-1.1-0.2-1.5-0.6c-0.4-0.4-0.6-0.9-0.6-1.5v-7h1.3v7c0,0.2,0.1,0.4,0.2,0.6
				c0.2,0.2,0.3,0.2,0.6,0.2c0.2,0,0.4-0.1,0.6-0.2c0.2-0.2,0.2-0.3,0.2-0.6v-7h1.4v7c0,0.6-0.2,1.1-0.6,1.5
				C384.4,182.3,383.9,182.5,383.3,182.5"/>
			<path class="st1" d="M388.8,182.5c-0.6,0-1.1-0.2-1.5-0.6c-0.4-0.4-0.6-0.9-0.6-1.5v-5c0-0.6,0.2-1.1,0.6-1.5
				c0.4-0.4,0.9-0.6,1.5-0.6c0.6,0,1.1,0.2,1.5,0.6c0.4,0.4,0.6,0.9,0.6,1.5v1h-1.4v-1.1c0-0.2-0.1-0.4-0.2-0.6
				c-0.2-0.2-0.3-0.2-0.6-0.2c-0.2,0-0.4,0.1-0.6,0.2c-0.2,0.2-0.2,0.3-0.2,0.6v5c0,0.2,0.1,0.4,0.2,0.6c0.2,0.2,0.3,0.2,0.6,0.2
				c0.2,0,0.4-0.1,0.6-0.2c0.2-0.1,0.2-0.3,0.2-0.6v-1.2h1.4v1.3c0,0.6-0.2,1.1-0.6,1.5C389.9,182.3,389.4,182.5,388.8,182.5"/>
			<path class="st2" d="M392.8,177.8c0-0.6,0.5-1.1,1.1-1.1s1.1,0.5,1.1,1.1c0,0.6-0.5,1.1-1.1,1.1
				C393.3,178.9,392.8,178.4,392.8,177.8"/>
			<path class="st1" d="M401.2,180.1c0,0.6-0.2,1.2-0.5,1.6c-0.2,0.3-0.5,0.5-0.9,0.6c-0.2,0.1-0.5,0.1-0.8,0.1
				c-0.5,0-1-0.1-1.3-0.4c-0.3-0.2-0.5-0.5-0.7-0.9c-0.2-0.4-0.3-0.8-0.3-1.3l1.3-0.1c0.1,0.5,0.2,0.9,0.4,1.1
				c0.2,0.2,0.4,0.3,0.6,0.3c0.3,0,0.5-0.2,0.7-0.4c0.1-0.1,0.1-0.3,0.1-0.6c0-0.4-0.2-0.8-0.5-1.1c-0.3-0.3-0.7-0.6-1.2-1.1
				c-0.5-0.4-0.8-0.8-1-1.2c-0.2-0.4-0.3-0.8-0.3-1.3c0-0.8,0.3-1.5,0.8-1.9c0.3-0.3,0.8-0.4,1.3-0.4c0.5,0,0.9,0.1,1.3,0.3
				c0.3,0.2,0.5,0.4,0.7,0.7c0.2,0.3,0.3,0.7,0.3,1l-1.3,0.2c0-0.4-0.1-0.7-0.3-0.9c-0.1-0.1-0.3-0.2-0.5-0.2
				c-0.2,0-0.4,0.1-0.6,0.3c-0.1,0.2-0.2,0.4-0.2,0.7c0,0.4,0.2,0.8,0.5,1.3c0.1,0.2,0.3,0.4,0.6,0.6c0.3,0.3,0.5,0.5,0.6,0.6
				c0.3,0.3,0.6,0.7,0.8,1c0.1,0.2,0.2,0.3,0.2,0.4C401.1,179.6,401.2,179.9,401.2,180.1"/>
			<polygon class="st1" points="402.4,182.4 402.4,173.3 406.3,173.3 406.3,174.7 403.7,174.7 403.7,177.2 405.6,177.2 405.6,178.5 
				403.7,178.5 403.7,181 406.3,181 406.3,182.4 			"/>
			<path class="st1" d="M411.7,180.1c0,0.6-0.2,1.2-0.5,1.6c-0.2,0.3-0.5,0.5-0.9,0.6c-0.2,0.1-0.5,0.1-0.8,0.1
				c-0.5,0-1-0.1-1.3-0.4c-0.3-0.2-0.5-0.5-0.7-0.9c-0.2-0.4-0.3-0.8-0.3-1.3l1.3-0.1c0.1,0.5,0.2,0.9,0.4,1.1
				c0.2,0.2,0.4,0.3,0.6,0.3c0.3,0,0.5-0.2,0.7-0.4c0.1-0.1,0.1-0.3,0.1-0.6c0-0.4-0.2-0.8-0.5-1.1c-0.3-0.3-0.7-0.6-1.2-1.1
				c-0.5-0.4-0.8-0.8-1-1.2c-0.2-0.4-0.3-0.8-0.3-1.3c0-0.8,0.3-1.5,0.8-1.9c0.3-0.3,0.8-0.4,1.3-0.4c0.5,0,0.9,0.1,1.3,0.3
				c0.3,0.2,0.5,0.4,0.7,0.7c0.2,0.3,0.3,0.7,0.3,1l-1.3,0.2c0-0.4-0.1-0.7-0.3-0.9c-0.1-0.1-0.3-0.2-0.5-0.2
				c-0.3,0-0.4,0.1-0.6,0.3c-0.1,0.2-0.2,0.4-0.2,0.7c0,0.4,0.2,0.8,0.5,1.3c0.1,0.2,0.3,0.4,0.6,0.6c0.3,0.3,0.5,0.5,0.6,0.6
				c0.3,0.3,0.6,0.7,0.8,1c0.1,0.2,0.2,0.3,0.2,0.4C411.6,179.6,411.7,179.9,411.7,180.1"/>
			<path class="st1" d="M414.3,180.3l-0.3,2.1h-1.4l1.5-9.1h1.9l1.5,9.1H416l-0.3-2.1H414.3z M415,175.4l-0.5,3.6h1L415,175.4z"/>
			<polygon class="st1" points="420.1,173.3 421.9,179.4 421.9,173.3 423.3,173.3 423.3,182.4 421.9,182.4 420,176.6 420,182.4 
				418.6,182.4 418.6,173.3 			"/>
			<path class="st2" d="M425.1,177.8c0-0.6,0.5-1.1,1.1-1.1c0.6,0,1.1,0.5,1.1,1.1c0,0.6-0.5,1.1-1.1,1.1
				C425.6,178.9,425.1,178.4,425.1,177.8"/>
			<polygon class="st1" points="430.4,182.4 429,182.4 429,173.3 431,173.3 432.2,179.8 433.5,173.3 435.4,173.3 435.4,182.4 
				434,182.4 434,176.7 432.8,182.4 431.7,182.4 430.4,176.7 			"/>
			<path class="st1" d="M438.3,180.3l-0.3,2.1h-1.4l1.5-9.1h1.9l1.5,9.1H440l-0.3-2.1H438.3z M439,175.4l-0.5,3.6h1L439,175.4z"/>
			<path class="st1" d="M444.6,182.5c-0.6,0-1.1-0.2-1.5-0.6c-0.4-0.4-0.6-0.9-0.6-1.5v-5c0-0.6,0.2-1.1,0.6-1.5
				c0.4-0.4,0.9-0.6,1.5-0.6c0.6,0,1.1,0.2,1.5,0.6c0.4,0.4,0.6,0.9,0.6,1.5v1h-1.4v-1.1c0-0.2-0.1-0.4-0.2-0.6
				c-0.2-0.2-0.3-0.2-0.6-0.2c-0.2,0-0.4,0.1-0.6,0.2c-0.2,0.2-0.2,0.3-0.2,0.6v5c0,0.2,0.1,0.4,0.2,0.6c0.2,0.2,0.3,0.2,0.6,0.2
				c0.2,0,0.4-0.1,0.6-0.2c0.2-0.1,0.2-0.3,0.2-0.6v-1.8h-0.8v-1.4h2.2v3.2c0,0.6-0.2,1.1-0.6,1.5
				C445.7,182.3,445.2,182.5,444.6,182.5"/>
			<path class="st1" d="M449.4,180.3l-0.3,2.1h-1.4l1.5-9.1h1.9l1.5,9.1h-1.4l-0.3-2.1H449.4z M450.1,175.4l-0.5,3.6h1L450.1,175.4z
				"/>
			<path class="st2" d="M454.4,177.8c0-0.6,0.5-1.1,1.1-1.1s1.1,0.5,1.1,1.1c0,0.6-0.5,1.1-1.1,1.1
				C454.9,178.9,454.4,178.4,454.4,177.8"/>
			<polygon class="st1" points="459.7,182.4 458.3,182.4 458.3,173.3 460.3,173.3 461.5,179.8 462.8,173.3 464.7,173.3 464.7,182.4 
				463.3,182.4 463.3,176.7 462.1,182.4 461,182.4 459.7,176.7 			"/>
			<path class="st1" d="M467.6,180.3l-0.3,2.1h-1.4l1.5-9.1h1.9l1.5,9.1h-1.4l-0.3-2.1H467.6z M468.3,175.4l-0.5,3.6h1L468.3,175.4z
				"/>
			<path class="st1" d="M474.1,173.3c0.8,0,1.3,0.2,1.7,0.6c0.3,0.4,0.5,0.9,0.5,1.5v1.3c0,0.6-0.2,1.2-0.7,1.6l1,4H475l-0.8-3.4
				c0,0-0.1,0-0.1,0h-0.8v3.4h-1.4v-9.1H474.1z M474.9,175.5c0-0.5-0.3-0.8-0.8-0.8h-0.8v2.9h0.8c0.2,0,0.4-0.1,0.6-0.2
				c0.1-0.2,0.2-0.3,0.2-0.6V175.5z"/>
			<polygon class="st1" points="479.2,173.3 481,179.4 481,173.3 482.4,173.3 482.4,182.4 480.9,182.4 479,176.6 479,182.4 
				477.7,182.4 477.7,173.3 			"/>
			<path class="st0" d="M292.4,40.5h4v7.1c-1.9,1.3-5,2.3-7.5,2.3c-5.5,0-9.6-3.9-9.6-9.2c0-5.2,4.2-9.1,9.9-9.1
				c2.7,0,5.5,1,7.4,2.7l-2.7,3.3c-1.3-1.2-3.1-2-4.7-2c-2.9,0-5.1,2.2-5.1,5.1c0,2.9,2.2,5.2,5.1,5.2c0.9,0,2-0.3,3.1-0.8V40.5z"/>
			<path class="st0" d="M310.3,49.6l-2.6-5h-0.1h-3.4v5h-4.7V31.7h8.1c4.8,0,7.5,2.3,7.5,6.3c0,2.7-1.1,4.7-3.2,5.8l3.7,5.9H310.3z
				 M304.2,40.9h3.4c1.9,0,3-1,3-2.8c0-1.8-1.1-2.7-3-2.7h-3.4V40.9z"/>
			<path class="st0" d="M330,46.4h-7.8l-1.3,3.2h-4.8l7.7-17.9h4.8l7.5,17.9h-5L330,46.4z M328.6,42.9l-2.5-6.4l-2.5,6.4H328.6z"/>
			<polygon class="st0" points="342,31.7 350.1,42.5 350.1,31.7 354.5,31.7 354.5,49.6 350.4,49.6 342.2,38.9 342.2,49.6 
				337.8,49.6 337.8,31.7 			"/>
			<path class="st0" d="M374.2,35.5c-2.8,0-4.9,2.2-4.9,5c0,2.9,2.1,5.1,4.9,5.1c1.5,0,3.2-0.8,4.5-2.1l2.7,2.9
				c-1.9,2-4.8,3.3-7.4,3.3c-5.4,0-9.4-3.9-9.4-9.2c0-5.2,4.1-9.1,9.6-9.1c2.7,0,5.5,1.2,7.2,3.1l-2.7,3.2
				C377.4,36.4,375.7,35.5,374.2,35.5"/>
			<path class="st0" d="M394.1,49.6l-2.6-5h-0.1H388v5h-4.7V31.7h8.1c4.8,0,7.5,2.3,7.5,6.3c0,2.7-1.1,4.7-3.2,5.8l3.7,5.9H394.1z
				 M388,40.9h3.4c1.9,0,3-1,3-2.8c0-1.8-1.1-2.7-3-2.7H388V40.9z"/>
			<path class="st0" d="M409.9,45.8c2.1,0,3.5-1.4,3.5-3.7V31.7h4.7v10.4c0,4.7-3.2,7.7-8.2,7.7c-5.1,0-8.3-3-8.3-7.7V31.7h4.7v10.4
				C406.3,44.4,407.8,45.8,409.9,45.8"/>
			<polygon class="st0" points="436,31.7 436,34.8 426.5,45.9 436.1,45.9 436.1,49.6 420.2,49.6 420.2,46.6 429.7,35.4 420.6,35.4 
				420.6,31.7 			"/>
			<path class="st0" d="M450.5,46.4h-7.8l-1.3,3.2h-4.8l7.7-17.9h4.8l7.5,17.9h-5L450.5,46.4z M449.2,42.9l-2.5-6.4l-2.5,6.4H449.2z
				"/>
			<path class="st0" d="M475.7,40.6c0,5.3-3.9,9-9.7,9h-7.5V31.7h7.7C471.8,31.7,475.7,35.3,475.7,40.6 M470.9,40.7
				c0-3.1-2-5.2-4.9-5.2h-2.9v10.3h3.2C468.9,45.8,470.9,43.8,470.9,40.7"/>
			<path class="st0" d="M489.5,46.4h-7.8l-1.3,3.2h-4.8l7.7-17.9h4.8l7.5,17.9h-5L489.5,46.4z M488.1,42.9l-2.5-6.4l-2.5,6.4H488.1z
				"/>
		</g>
	</g>
	<g>
		<g>
			<g>
				<path class="st3" d="M141.9,135.8c-2.2-1.3-4.3-2.7-6.5-3.9c-3-1.6-5.8-3.5-8.9-4.9c-1.6-0.8-3.3-1.5-5-1.9
					c-0.9-0.2-2-0.7-2.5,0.1c-0.5,0.8,0.6,1.5,1.2,2c2.2,2,4.7,3.7,7.2,5.4c3.5,2.4,10.9,7.4,11.2,7.6c1.4,1.1,9.4,5,9.7,5.1
					c5.6,3.2,11.3,6.3,17,9.5c2.3,1.3,4.3,3.1,5.2,5.8c0.1,0.6,0.2,1.2,0.6,1.7c0.1,0.1,0.1,0.2,0.1,0.4c0.3,1.4,0.6,2.8-0.2,4.1
					c-1.1,3.1-3,4.4-6.2,4.5c-3.4,0.2-6.4-1.1-9.4-2.5c-8.1-3.9-15.9-8.4-23.7-12.9c-5.4-3.1-10.8-6.2-16.3-9.1
					c-0.4-0.3-0.8-0.5-1.3-0.7c-1.3-0.5-2.5-1.2-3.9-1.6c-0.3-0.2-0.7-0.3-1,0.1c0,1,0.8,1.6,1.4,2.2c4.5,4.2,9.6,7.7,14.6,11.2
					c7,4.9,14.2,9.5,21.5,13.8c2.2,1.3,4.5,2.3,6.4,4c1.3,1.1,2.3,2.4,3.2,4c1.7,3.4-0.4,7.3-4.2,8.6c-2.6,0.9-5.2,0.7-7.7,0
					c-0.6-0.3-1.2-0.3-1.8-0.7c-2.3-0.7-4.4-2-6.5-3.2c-4.6-2.5-8.9-5.5-13.3-8.4c-6.2-4.1-12.4-8.3-18.7-12.5
					c-1.2-0.8-2.4-1.4-3.6-2.1c-0.3-0.2-0.6-0.5-0.9-0.2c-0.3,0.4,0.2,0.8,0.4,1c1.5,1.5,3,3,4.5,4.4c5.8,5.2,12,9.9,18.3,14.5
					c2,1.5,4.3,2.7,6.4,4.1c1.5,1,2.7,2.3,3.2,4.2c0.3,0.7,0.3,1.3,0,2c-0.4,1.2-1.1,2.1-2.2,2.7c-0.5,0.3-1.1,0.4-1.5,0.7
					c-2,0.6-3.9,0.1-5.9,0c-0.7,0-1.4-0.2-2-0.7c-6-3-11.6-6.6-17.3-10.2c-1.3-0.8-2.4-1.9-3.9-2.4c-0.4-0.1-0.8-0.3-1-0.7
					c-1.6-1.2-3.2-2.5-4.9-3.6c-3.8-2.6-7.3-5.6-10.8-8.6c-3.6-3.1-7-6.5-10.1-10.1c-1.3-1.5-4.1-5-7.1-9.8c-1.3-2-2.2-3.8-3-5.1
					c-1-2.1-1.9-4.2-2.9-6.4c-0.4-0.7-0.9-1.5-1.3-2.5c-0.4-1-0.8-1.9-1-2.7c-0.3-0.5-0.3-1.1-0.7-1.5c0-0.1-0.1-0.2-0.1-0.2
					c-0.3-0.3-0.3-0.7-0.4-1.1c-0.1-0.3-0.2-0.6-0.3-0.9c-0.2-0.4-0.3-0.7-0.3-1.1c0-0.4-0.2-0.8-0.3-1.1c-0.2-1-0.7-1.9-0.8-2.9
					c-0.2-0.5-0.3-1-0.4-1.5c-0.1-0.5-0.2-1-0.3-1.5c-0.4-0.9-0.3-1.9-0.6-2.8c-0.1-2.7-0.7-5.3-0.8-8c-0.1-3.7,0.4-7.3,0.8-10.9
					c0.4-0.9,0.2-1.9,0.7-2.8c0-0.2,0.1-0.5,0.1-0.7c0.2-0.4,0.4-0.8,0.3-1.3c0.1-0.3,0.2-0.7,0.3-1c0.1-0.3,0.2-0.6,0.3-1
					c0.2-0.4,0.2-0.9,0.4-1.3c0.3-0.7,0.5-1.5,0.8-2.2c0.3-0.5,0.4-1,0.7-1.5c1-2.9,2.5-5.5,4.1-8.1c1.1-1.8,2.3-3.5,3.5-5.2
					c0.2-0.6,0.4-1.1,1-1.4c4.3-5.2,9-9.9,14.2-14.2c5.8-4.8,12-9.1,18.5-13c1.2-0.7,2.5-1.4,3.8-1.8c0.5-0.3,1.1-0.3,1.5-0.7
					c0.2,0,0.3,0,0.5-0.1c0.5-0.4,1.2-0.3,1.8-0.7l1.4-0.3c0.5-0.2,1.1-0.1,1.5-0.4c2.2-0.3,4.4-0.9,6.6-0.7
					c1.9,0.1,3.8,0.3,5.6,1.3c0.8,0.5,1.4,1.1,1.9,1.8c0.6,1.4,0.5,2.8,0,4.2c-1.2,3.1-3.3,5.7-5.6,8.1c-2.6,2.9-5.8,5.2-8.1,8.3
					c-4.3,6-6.9,12.5-4.9,20.1c0,0.2,0.1,0.3,0.1,0.5c0.3,0.6,0.3,1.2,0.7,1.8c0.1,0.3,0.2,0.6,0.3,1c0.2,0.3,0.2,0.7,0.5,1
					c1.4,2.6,2.9,5,5.1,6.9c0.4,0.2,0.7,0.4,1,0.6c2.6,2.9,5.8,4.9,9,7c7.6,5.1,15.3,10.1,23.1,14.8c4.7,2.8,9.5,5.5,14.3,8.2
					c0.9,0.5,1.7,1,2.6,1.4c2,1.3,4.2,2.3,6.1,3.7c1.6,1.2,2.6,2.8,3.5,4.6c0.1,0.4,0.2,0.7,0.2,1.1c0,0.5,0.3,1,0.4,1.4
					c0.2,1.1,0.2,2.2,0,3.3c-0.2,0.6-0.6,1.1-0.7,1.8c-0.5,1.1-1.3,1.9-2.4,2.4c-0.6,0.1-1.1,0.4-1.7,0.7c-2.6,0.4-5.1,0-7.4-1.1
					c-3.7-1.6-7.2-3.6-10.7-5.6"/>
				<path class="st4" d="M152.6,88.9c2.2,1.3,4.3,2.7,6.5,3.9c3,1.6,5.8,3.5,8.9,4.9c1.6,0.8,3.3,1.5,5,1.9c0.9,0.2,2,0.7,2.5-0.1
					c0.5-0.8-0.6-1.5-1.2-2c-2.2-2-4.7-3.7-7.2-5.4c-3.5-2.4-10.9-7.4-11.2-7.6c-1.4-1.1-9.4-5-9.7-5.1c-5.6-3.3-11.3-6.3-17-9.5
					c-2.3-1.3-4.3-3.1-5.2-5.8c-0.1-0.6-0.2-1.2-0.6-1.7c-0.1-0.1-0.1-0.2-0.1-0.4c-0.3-1.4-0.6-2.8,0.2-4.1c1.1-3.1,3-4.4,6.2-4.5
					c3.4-0.2,6.4,1.1,9.4,2.5c8.1,3.9,15.9,8.4,23.7,12.9c5.4,3.1,10.7,6.2,16.3,9.1c0.4,0.3,0.8,0.5,1.3,0.7
					c1.3,0.5,2.5,1.2,3.9,1.6c0.3,0.2,0.7,0.3,1,0c0-1-0.8-1.6-1.4-2.2c-4.5-4.2-9.6-7.7-14.6-11.2c-7-4.9-14.2-9.5-21.5-13.8
					c-2.2-1.3-4.5-2.3-6.4-3.9c-1.3-1.1-2.3-2.4-3.1-4c-1.7-3.4,0.4-7.3,4.2-8.6c2.6-0.9,5.2-0.7,7.7,0c0.5,0.3,1.2,0.3,1.8,0.7
					c2.3,0.7,4.4,2,6.5,3.2c4.6,2.5,8.9,5.5,13.3,8.4c6.2,4.1,12.4,8.3,18.7,12.5c1.1,0.8,2.4,1.4,3.6,2.1c0.3,0.1,0.6,0.5,0.9,0.1
					c0.3-0.4-0.2-0.8-0.4-1c-1.5-1.5-3-3-4.5-4.4c-5.8-5.2-12-9.9-18.3-14.5c-2-1.5-4.3-2.7-6.4-4.1c-1.5-1-2.7-2.3-3.2-4.2
					c-0.3-0.7-0.3-1.3,0-2c0.4-1.2,1.1-2.1,2.2-2.7c0.5-0.3,1.1-0.4,1.5-0.7c2-0.6,3.9-0.1,5.9,0c0.7,0,1.4,0.2,2,0.7
					c6,3,11.6,6.6,17.3,10.2c1.3,0.8,2.4,1.9,3.9,2.5c0.4,0.1,0.8,0.3,1,0.7c1.6,1.2,3.2,2.5,4.9,3.6c3.8,2.6,7.3,5.6,10.8,8.6
					c3.6,3.1,7,6.5,10.1,10.1c1.3,1.5,4.1,5,7.1,9.8c1.3,2,2.2,3.8,3,5.1c1,2.1,1.9,4.2,2.9,6.4c0.4,0.7,0.9,1.5,1.3,2.5
					c0.4,1,0.8,1.9,1,2.7c0.3,0.5,0.3,1.1,0.7,1.5c0,0.1,0.1,0.1,0.1,0.2c0.3,0.3,0.3,0.7,0.4,1.1c0.1,0.3,0.2,0.6,0.3,0.9
					c0.2,0.4,0.3,0.7,0.3,1.1c0,0.4,0.2,0.8,0.3,1.1c0.2,1,0.7,1.9,0.8,2.9c0.2,0.5,0.3,1,0.4,1.5c0.1,0.5,0.2,1,0.3,1.5
					c0.4,0.9,0.3,1.9,0.7,2.8c0.1,2.7,0.7,5.3,0.8,8c0.1,3.7-0.4,7.3-0.8,10.9c-0.4,0.9-0.2,1.9-0.7,2.8c0,0.2-0.1,0.5-0.1,0.7
					c-0.2,0.4-0.4,0.8-0.3,1.3c-0.1,0.3-0.2,0.7-0.3,1c-0.1,0.3-0.2,0.7-0.3,1c-0.2,0.4-0.2,0.9-0.4,1.3c-0.3,0.7-0.5,1.5-0.8,2.2
					c-0.3,0.5-0.4,1-0.7,1.5c-1,2.9-2.5,5.5-4.1,8.1c-1.1,1.8-2.3,3.5-3.5,5.2c-0.2,0.6-0.4,1.1-1,1.4c-4.3,5.2-9,9.9-14.2,14.2
					c-5.8,4.8-12,9.1-18.5,13c-1.2,0.7-2.5,1.4-3.8,1.8c-0.5,0.3-1.1,0.3-1.5,0.7c-0.2,0-0.3,0-0.5,0.1c-0.5,0.4-1.2,0.3-1.8,0.7
					c-0.5,0.1-0.9,0.2-1.4,0.3c-0.5,0.2-1.1,0.1-1.5,0.4c-2.2,0.3-4.4,0.8-6.6,0.7c-1.9-0.1-3.8-0.3-5.6-1.3
					c-0.8-0.5-1.4-1.1-1.9-1.8c-0.6-1.4-0.5-2.8,0-4.2c1.2-3.1,3.3-5.7,5.6-8.1c2.6-2.9,5.8-5.2,8.1-8.3c4.3-6,6.9-12.5,4.9-20.1
					c0-0.2-0.1-0.3-0.1-0.5c-0.3-0.6-0.3-1.2-0.7-1.8c-0.1-0.3-0.2-0.6-0.3-1c-0.2-0.3-0.2-0.7-0.5-1c-1.4-2.5-2.9-5-5.1-6.9
					c-0.4-0.2-0.7-0.4-1-0.6c-2.6-2.9-5.8-4.9-9-7c-7.6-5.1-15.3-10.1-23.1-14.8c-4.7-2.8-9.5-5.5-14.3-8.2c-0.9-0.5-1.7-1-2.6-1.4
					c-2-1.3-4.2-2.3-6.1-3.7c-1.6-1.2-2.6-2.8-3.5-4.6c-0.1-0.4-0.2-0.7-0.2-1.1c0-0.5-0.3-1-0.4-1.4c-0.2-1.1-0.2-2.2,0-3.3
					c0.2-0.6,0.6-1.1,0.7-1.8c0.5-1.1,1.3-1.9,2.4-2.4c0.6-0.1,1.1-0.4,1.7-0.7c2.6-0.4,5.1,0,7.4,1.1c3.7,1.6,7.2,3.6,10.7,5.6"/>
				<path class="st3" d="M168.3,11.3c0-0.9-0.7-1.6-1.5-1.8c-7.2-1.3-38.8-5.3-35.6,26.9c0.2,1.8,2.6,2.3,3.4,0.7
					c2.2-4.4,7-9,17-8.4C167.5,29.6,168.4,15.9,168.3,11.3 M142.2,22c-0.4,0.3-1.1,0.8-1.7,1.5c-0.4,0.3-0.7,0.6-1.1,1
					c-0.4,0.4-0.8,0.8-1.1,1.2c-0.4,0.4-0.7,0.9-1.1,1.4c-0.4,0.5-0.7,1-1,1.5c-0.7,1-1.2,2.1-1.7,3.1c-0.2,0.5-0.5,1-0.7,1.5
					c-0.2,0.5-0.4,1-0.5,1.4c-0.6,1.7-1,3-1,3s-0.3-1.3-0.1-3.2c0.1-1,0.3-2.1,0.7-3.3c0.2-0.6,0.4-1.2,0.7-1.8
					c0.3-0.6,0.6-1.2,0.9-1.7c0.3-0.6,0.7-1.1,1.2-1.6c0.4-0.5,0.9-1,1.3-1.4c0.4-0.5,0.9-0.8,1.4-1.1c0.4-0.4,0.9-0.6,1.4-0.8
					c0.9-0.5,1.6-0.7,2.2-0.9c0.5-0.2,0.9-0.2,0.9-0.2S142.7,21.6,142.2,22"/>
				<path class="st4" d="M130.1,39.2c-6-31.8-35.3-19-41.8-15.7c-0.8,0.4-1.2,1.3-1,2.1c1.2,4.4,6,17.3,20.9,12
					c9.5-3.4,15.3-0.4,18.7,3.2C128.2,42.2,130.4,41,130.1,39.2 M128.3,37.8c-0.4-0.5-0.8-1.1-1.3-1.8c-0.5-0.6-1.1-1.3-1.7-1.8
					c-0.6-0.6-1.3-1.1-1.9-1.6c-0.7-0.4-1.3-0.8-1.9-1.1c-0.6-0.3-1.1-0.5-1.5-0.7c-0.4-0.2-0.6-0.3-0.6-0.3s0.2,0,0.6,0
					c0.4,0,1,0,1.7,0.2c0.3,0.1,0.7,0.2,1.1,0.3c0.4,0.1,0.8,0.3,1.2,0.5c0.8,0.4,1.6,1,2.2,1.6c1.4,1.3,2.4,2.9,2.8,4.2
					c0.5,1.3,0.6,2.2,0.6,2.2S129.1,38.9,128.3,37.8"/>
			</g>
		</g>
		<g>
			<g>
				<path class="st5" d="M153,123c0.3,2.4,0.5,4.8,0.9,7.2c0.5,3.2,0.8,6.4,1.6,9.6c0.4,1.7,0.8,3.3,1.5,4.9
					c0.3,0.8,0.7,1.9,1.6,1.8c0.9-0.1,0.7-1.3,0.8-2.1c0.2-2.9,0-5.7-0.2-8.6c-0.3-4.1-0.9-12.6-0.9-12.9c0-1.7-1.8-10-1.9-10.3
					c-0.9-6.1-2-12.2-3-18.3c-0.4-2.5-0.2-5.1,1.3-7.4c0.3-0.4,0.7-0.9,0.9-1.4c0.1-0.1,0.1-0.2,0.2-0.3c0.9-1,1.7-2.1,3.2-2.3
					c3-1,5-0.3,7.1,2c2.1,2.4,3,5.5,3.7,8.5c1.8,8.4,3.1,16.9,4.3,25.4c0.9,5.9,1.7,11.8,2.8,17.6c0,0.5,0.2,0.9,0.2,1.4
					c0.4,1.3,0.6,2.6,1.1,3.9c0,0.4,0.2,0.7,0.6,0.7c0.8-0.6,0.7-1.5,0.8-2.3c0.5-5.9,0.1-11.7-0.3-17.5c-0.5-8.1-1.3-16.2-2.3-24.3
					c-0.3-2.4-0.9-4.7-0.8-7.1c0-1.7,0.4-3.2,1.1-4.7c1.5-3.3,5.7-4,8.9-1.9c2.2,1.4,3.6,3.4,4.5,5.8c0.1,0.6,0.5,1.1,0.5,1.7
					c0.8,2.2,1.1,4.5,1.4,6.7c0.8,4.9,1.2,9.9,1.6,14.9c0.6,7.1,1.1,14.3,1.7,21.4c0.1,1.3,0.3,2.6,0.5,3.9c0,0.3,0,0.8,0.4,0.7
					c0.5,0,0.5-0.6,0.5-0.9c0.3-2,0.5-4,0.6-6c0.4-7.4,0.3-14.9,0.1-22.3c-0.1-2.4-0.6-4.8-0.7-7.2c-0.1-1.7,0.1-3.4,1.2-4.9
					c0.3-0.6,0.8-1,1.5-1.2c1.1-0.5,2.3-0.5,3.4,0.1c0.5,0.1,0.9,0.6,1.4,0.7c1.6,1.1,2.4,2.9,3.5,4.4c0.4,0.6,0.7,1.2,0.7,1.9
					c1.3,6.3,1.9,12.7,2.6,19c0.2,1.4,0.1,2.9,0.4,4.3c0.2,0.4,0.2,0.8,0.1,1.2c0.1,1.9,0,3.9,0.2,5.8c0.3,4.4,0.1,8.8,0,13.2
					c-0.2,4.6-0.8,9.1-1.7,13.5c-0.4,1.9-1.3,6-3.2,11.1c-0.8,2.1-1.5,3.9-2.1,5.3c-1,2-2,4-3.1,5.9c-0.3,0.7-0.6,1.5-1.1,2.4
					c-0.5,0.9-1,1.7-1.4,2.4c-0.2,0.5-0.6,0.9-0.7,1.4c0,0.1-0.1,0.1-0.1,0.2c-0.1,0.4-0.4,0.6-0.5,0.9c-0.2,0.3-0.3,0.5-0.5,0.8
					c-0.2,0.3-0.4,0.7-0.7,0.9c-0.3,0.3-0.5,0.6-0.6,0.9c-0.6,0.7-1,1.7-1.7,2.3c-0.2,0.5-0.6,0.8-0.9,1.2c-0.3,0.4-0.6,0.7-0.9,1.1
					c-0.4,0.8-1.2,1.4-1.7,2.1c-2,1.7-3.6,3.7-5.6,5.3c-2.7,2.3-5.6,4-8.6,5.9c-0.9,0.2-1.5,1-2.5,1.1c-0.2,0.1-0.4,0.2-0.6,0.3
					c-0.4,0.1-0.8,0.2-1.2,0.5c-0.3,0.1-0.6,0.3-0.9,0.3c-0.3,0.1-0.6,0.2-0.9,0.4c-0.4,0.1-0.8,0.4-1.2,0.4
					c-0.7,0.2-1.4,0.5-2.1,0.7c-0.5,0.1-1,0.3-1.6,0.4c-2.8,0.9-5.6,1.4-8.5,1.7c-2,0.2-4,0.3-6,0.5c-0.5,0.2-1.1,0.3-1.7,0
					c-6.4-0.1-12.8-0.9-19-2.2c-7-1.5-13.9-3.6-20.6-6.2c-1.3-0.5-2.5-1-3.6-1.8c-0.5-0.2-0.9-0.6-1.4-0.7c-0.1-0.1-0.2-0.2-0.3-0.3
					c-0.6-0.1-0.9-0.8-1.6-0.9l-1.1-0.9c-0.4-0.3-0.7-0.8-1.2-0.9c-1.5-1.5-3.2-2.8-4.4-4.5c-1.1-1.5-2-3.1-2.3-4.9
					c-0.2-0.9,0-1.7,0.2-2.5c0.7-1.3,1.8-2,3.2-2.5c3.1-1,6.2-0.9,9.3-0.6c3.7,0.3,7.3,1.3,11,1.1c7.1-0.3,13.5-2.2,18-8.2
					c0.1-0.1,0.2-0.2,0.3-0.3c0.2-0.6,0.8-0.9,0.9-1.6c0.2-0.3,0.4-0.5,0.6-0.8c0.1-0.3,0.4-0.6,0.5-1c1.1-2.5,2-5.1,2.2-7.9
					c-0.1-0.4-0.2-0.7-0.1-1.1c0.6-3.6,0.2-7.3,0-10.9c-0.6-8.7-1.4-17.4-2.6-26.1c-0.7-5.2-1.5-10.4-2.3-15.6
					c-0.2-0.9-0.2-1.9-0.4-2.8c-0.2-2.3-0.8-4.5-0.8-6.8c0-1.9,0.5-3.6,1.4-5.3c0.2-0.3,0.4-0.6,0.7-0.8c0.4-0.3,0.6-0.8,0.8-1.2
					c0.7-0.8,1.5-1.4,2.4-1.9c0.6-0.2,1.2-0.2,1.7-0.5c1.1-0.3,2.2-0.2,3.2,0.4c0.4,0.4,1,0.6,1.5,0.9c1.8,1.7,3,3.8,3.6,6.2
					c0.9,3.7,1.5,7.5,2.1,11.3"/>
				<path class="st6" d="M111.5,142.7c-0.3-2.4-0.5-4.8-0.9-7.2c-0.5-3.2-0.8-6.4-1.6-9.6c-0.4-1.7-0.8-3.3-1.5-4.9
					c-0.3-0.8-0.7-1.9-1.6-1.8c-0.9,0.1-0.7,1.3-0.8,2.1c-0.2,2.9,0,5.7,0.2,8.6c0.3,4.1,0.9,12.6,0.9,12.9c0,1.7,1.8,10,1.9,10.3
					c0.9,6.1,2,12.2,2.9,18.3c0.4,2.5,0.2,5.1-1.3,7.4c-0.3,0.4-0.7,0.9-0.9,1.4c-0.1,0.1-0.1,0.2-0.2,0.3c-0.9,1-1.7,2.1-3.2,2.3
					c-3,1-5,0.3-7.1-2c-2.2-2.4-3-5.4-3.7-8.5c-1.8-8.4-3.1-16.9-4.3-25.4c-0.9-5.9-1.7-11.8-2.8-17.6c0-0.5-0.2-0.9-0.2-1.4
					c-0.4-1.3-0.6-2.6-1.1-3.8c0-0.4-0.2-0.7-0.6-0.7c-0.8,0.6-0.7,1.5-0.8,2.3c-0.5,5.9-0.1,11.7,0.3,17.5
					c0.5,8.1,1.3,16.2,2.3,24.3c0.3,2.4,0.9,4.7,0.8,7.1c0,1.7-0.4,3.2-1.1,4.7c-1.5,3.3-5.7,4-8.9,1.9c-2.2-1.4-3.6-3.4-4.5-5.8
					c-0.1-0.6-0.5-1.1-0.5-1.7c-0.8-2.2-1.1-4.5-1.4-6.7c-0.8-4.9-1.2-9.9-1.6-14.9c-0.6-7.1-1.1-14.3-1.7-21.4
					c-0.1-1.3-0.3-2.6-0.5-3.9c0-0.3,0-0.8-0.4-0.7c-0.5,0-0.5,0.6-0.5,0.9c-0.3,2-0.5,4-0.6,6c-0.4,7.4-0.3,14.9-0.1,22.3
					c0.1,2.4,0.6,4.8,0.7,7.2c0.1,1.7-0.1,3.4-1.2,4.9c-0.3,0.6-0.8,1-1.5,1.2c-1.1,0.5-2.3,0.5-3.4-0.1c-0.5-0.1-0.9-0.6-1.4-0.7
					c-1.6-1.1-2.4-2.9-3.5-4.4c-0.4-0.6-0.7-1.2-0.7-1.9c-1.3-6.3-1.9-12.7-2.6-19c-0.2-1.5,0-2.9-0.4-4.4c-0.2-0.4-0.2-0.8-0.1-1.2
					c-0.1-1.9,0-3.9-0.2-5.8c-0.3-4.4-0.1-8.8,0-13.2c0.2-4.6,0.8-9.1,1.7-13.5c0.4-1.9,1.3-6,3.2-11.1c0.8-2.1,1.5-3.9,2.1-5.3
					c1-2,2.1-4,3.1-5.9c0.3-0.7,0.6-1.6,1.1-2.4c0.5-0.9,1-1.7,1.4-2.4c0.2-0.5,0.6-0.9,0.7-1.4c0-0.1,0.1-0.1,0.1-0.2
					c0.1-0.4,0.4-0.6,0.5-0.9c0.2-0.3,0.3-0.5,0.5-0.8c0.2-0.3,0.4-0.7,0.6-0.9c0.3-0.3,0.5-0.6,0.6-0.9c0.6-0.7,1-1.7,1.7-2.3
					c0.2-0.5,0.6-0.8,0.9-1.2c0.3-0.4,0.6-0.7,0.9-1.1c0.4-0.8,1.2-1.4,1.7-2.1c1.9-1.7,3.6-3.7,5.6-5.3c2.7-2.3,5.6-4,8.6-5.9
					c0.9-0.2,1.5-1,2.5-1.1c0.2-0.1,0.4-0.2,0.6-0.3c0.4-0.1,0.8-0.2,1.2-0.5c0.3-0.1,0.6-0.3,0.9-0.3c0.3-0.1,0.6-0.2,0.9-0.4
					c0.4-0.1,0.8-0.4,1.2-0.4c0.7-0.2,1.4-0.5,2.1-0.7c0.5-0.1,1-0.3,1.6-0.4c2.8-0.9,5.6-1.4,8.5-1.7c2-0.2,4-0.3,6-0.5
					c0.6-0.2,1.1-0.3,1.7,0c6.4,0.1,12.8,0.8,19,2.2c7,1.5,13.9,3.6,20.6,6.2c1.3,0.5,2.5,1,3.6,1.8c0.5,0.2,0.9,0.6,1.4,0.7
					c0.1,0.1,0.2,0.2,0.3,0.3c0.6,0.1,0.9,0.8,1.6,0.9c0.4,0.3,0.7,0.6,1.1,0.9c0.4,0.3,0.7,0.8,1.2,0.9c1.5,1.5,3.2,2.8,4.4,4.5
					c1.1,1.5,2,3.1,2.3,4.9c0.1,0.9,0,1.7-0.2,2.5c-0.7,1.3-1.8,2-3.2,2.5c-3.1,1-6.2,0.8-9.3,0.6c-3.7-0.3-7.3-1.3-11-1.1
					c-7.1,0.3-13.5,2.2-18,8.2c-0.1,0.1-0.2,0.2-0.3,0.3c-0.2,0.6-0.8,0.9-0.9,1.6c-0.2,0.3-0.4,0.5-0.6,0.8
					c-0.1,0.3-0.4,0.6-0.5,0.9c-1.1,2.5-2,5.1-2.2,7.9c0.1,0.4,0.2,0.7,0.1,1.1c-0.6,3.6-0.2,7.3,0,10.9c0.6,8.7,1.4,17.4,2.6,26.1
					c0.7,5.2,1.5,10.4,2.3,15.6c0.2,0.9,0.2,1.9,0.4,2.8c0.2,2.3,0.8,4.5,0.8,6.8c0,1.9-0.5,3.6-1.4,5.3c-0.2,0.3-0.4,0.6-0.7,0.8
					c-0.4,0.3-0.6,0.8-0.8,1.2c-0.7,0.8-1.5,1.4-2.4,1.9c-0.6,0.2-1.2,0.2-1.7,0.5c-1.1,0.3-2.2,0.2-3.2-0.4c-0.4-0.4-1-0.6-1.5-0.9
					c-1.8-1.7-3-3.8-3.6-6.2c-0.9-3.7-1.5-7.5-2.1-11.3"/>
				<path class="st3" d="M44,176.8"/>
				<path class="st4" d="M44.9,152.9c-2.3,0.1-4.4,0.9-6.6,1.5c-0.4,0.1-0.6,0.3-0.8,0.6c-0.3,0.5-0.7,0.9-1.1,1.3
					c-1.4,1.2-2.8,2.4-4,3.8c-0.4,0.5-0.8,0.8-1.4,0.2c-0.5-0.6-0.4-1,0.2-1.5c1.1-1,2.1-2.1,3.2-3.1c0.6-0.6,0.4-0.9-0.3-1
					c-1.4-0.1-2.7-0.2-4.1,0c-0.7,0.1-1.5-0.6-1.4-1.2c0.1-0.8,0.8-0.6,1.2-0.6c1.5,0,3,0,4.5,0.2c2.3,0.2,4.3-0.8,6.5-1.2l3.9-0.9
					c0.9-0.2,1.8,0.1,1.8,0.9C46.4,152.8,45.6,152.9,44.9,152.9"/>
				<path class="st4" d="M39.6,149.7c-2.5,0.2-5.1,0.3-7.6-0.1c-0.9-0.1-2-0.1-2.3-1.3c-0.3-1.3,0.3-3.1,1.2-3.7
					c2-1.3,4.2-1.7,6.5-1.5c2.1,0.2,4.2,0.8,6.1,1.8c1.4,0.7,1.6,1.7,0.5,2.9C42.9,149.1,41.3,149.4,39.6,149.7 M42.2,146.4
					c-2.5-1.6-5.2-1.7-8-1.2c-0.6,0.1-1.2,0.1-1.6,0.3c-0.5,0.2-1.4,0.3-1.4,1.1c0,0.9,0.8,1.1,1.5,1.2c1,0.2,2,0.2,3,0.3
					c2.1,0.1,4.3,0,6.3-0.7c0.3-0.1,0.6-0.1,0.6-0.5C42.7,146.6,42.4,146.6,42.2,146.4"/>
				<path class="st4" d="M43,136c0,0-0.2,0-0.3,0c-5-0.9-10.1-1.1-15.1-2.3c-1.4-0.3-1.6-0.9-0.9-1.7c0.3-0.3,0.4-0.3,0.7-0.3
					c1.8,0.1,3.3-0.7,4.9-1.3c1.2-0.5,1.3-1.2,0-1.9c-1.6-1-3.2-1.8-4.8-2.7c-0.8-0.5-0.9-0.8-0.6-1.4c0.3-0.3,0.6-0.5,1.2-0.4
					c4.1,0.2,7.7,0.1,10.9-0.2c0.9-0.1,1.8-0.1,2.6-0.5c0.6-0.2,0.9-0.2,1.2,0.2c0.2,0.4,0.1,0.7-0.4,1.2c-0.4,0.4-0.7,0.6-1.1,0.6
					c-1.7,0.1-3.4,0.5-5.4,0.4l-1.3,0c-0.6,0-1.7-0.4-2,0.5c-0.2,0.8,1,1.1,1.5,1.5c0.5,0.3,0.9,0.6,1.4,0.8
					c0.5,0.3,0.9,0.2,0.9,0.7c-0.1,0.8-0.3,1.2-0.9,1.4c-0.8,0.3-1.6,0.6-2.4,0.9c-0.3,0.1-0.9,0.2-0.9,0.7c0,0.7,0.8,0.7,1.1,0.7
					c1.9,0.3,3.9,0.6,5.8,0.8c1.3,0.2,2.7,0.3,4,0.4c0.6,0.1,1.2,0,1.1,0.7C44.2,135.6,43.8,136,43,136"/>
				<path class="st4" d="M42.4,122.7l-4.8-0.3c-3.1-0.5-6.1-0.9-9.1-1.7c-1-0.2-1.5-0.6-1-1.6c0.2-0.4,0.1-0.9,0.2-1.3
					c0-0.6,0.2-1.1,0.6-1.6c0.2-0.2,0.4-0.4,0.7-0.4c0.3,0.1,0.4,0.4,0.4,0.7c0,0.5,0,1-0.1,1.5c-0.1,0.9,0.2,1.4,1.1,1.5
					c1.2,0.2,2.3,0.4,3.5,0.7c0.9,0.2,1.6,0.1,1.7-1c0-0.6,0.4-0.9,1-0.8c0.6,0.1,0.6,0.7,0.4,1.1c-0.4,1.1,0.2,1.2,1,1.3
					c1,0.1,2,0.2,3.1,0.2c0.7,0,1.1-0.1,1-0.9c-0.1-0.6,0-1.3,0.1-1.9c0-0.5,0.4-0.7,0.8-0.7c0.5,0,0.5,0.4,0.5,0.8
					c-0.1,1,0,2.1,0.4,3.1C44,121.9,43.3,122.7,42.4,122.7"/>
				<path class="st4" d="M42.9,109.2c-1.1,0.5-2.6,0.7-4.1,0.4c-3.6-0.8-7-2.6-10-5.1c-1.2-1.1-1.3-2.8-0.1-3.7
					c0.2-0.1,0.3-0.3,0.6-0.2c0.2,0,0.4,0.3,0.3,0.5c-0.4,1.2,0.5,1.8,1.2,2.4c2.7,2.2,5.8,3.8,9.3,4.4c0.8,0.1,1.6,0,2.3-0.1
					c1-0.1,1.4-0.8,0.8-1.7c-0.3-0.5-0.4-0.8-0.1-1.2c0.2-0.3,0.5-0.4,0.9-0.4c0.4,0.1,0.6,0.4,0.7,0.8
					C45.1,107.1,44.5,108.4,42.9,109.2"/>
				<path class="st4" d="M40,102.4c-2.3-0.8-4.8-1.8-6.9-3.2c-0.8-0.5-1.7-0.9-1.6-2.1c0.2-1.3,1.5-2.7,2.6-2.9
					c2.3-0.4,4.5,0.1,6.5,1.2c1.9,1,3.5,2.4,4.9,4.1c1,1.2,0.7,2.2-0.7,2.8C43.3,103.1,41.7,102.7,40,102.4 M43.8,100.4
					c-1.6-2.4-4.1-3.6-6.8-4.3c-0.5-0.1-1.1-0.4-1.6-0.4c-0.6,0-1.4-0.3-1.7,0.5c-0.3,0.8,0.3,1.3,0.9,1.6c0.8,0.6,1.7,1,2.7,1.5
					c1.9,0.9,3.9,1.7,6.1,1.9c0.3,0,0.6,0.1,0.7-0.2C44.2,100.8,43.9,100.6,43.8,100.4"/>
				<path class="st4" d="M46.9,96.4c0,0-0.1-0.1-0.2-0.1c-4.4-2.6-9-4.7-13.2-7.6c-1.1-0.8-1.2-1.4-0.2-1.9c0.4-0.1,0.5-0.2,0.7,0
					c1.7,0.7,3.4,0.5,5,0.5c1.3,0,1.6-0.7,0.7-1.8c-1.1-1.5-2.3-2.9-3.5-4.3c-0.6-0.7-0.6-1.1-0.1-1.5c0.4-0.2,0.7-0.2,1.3,0.1
					c3.7,1.7,7.1,2.9,10.2,3.8c0.8,0.3,1.7,0.5,2.6,0.5c0.6,0,0.9,0.2,1,0.6c0,0.4-0.2,0.7-0.8,0.9c-0.5,0.2-0.9,0.3-1.2,0.1
					c-1.6-0.5-3.4-0.8-5.1-1.6l-1.2-0.5c-0.5-0.2-1.4-1-2-0.3c-0.5,0.7,0.5,1.4,0.8,1.9c0.3,0.5,0.7,0.9,1,1.3
					c0.4,0.4,0.8,0.5,0.6,0.9c-0.4,0.7-0.8,1-1.3,1c-0.9,0-1.7-0.1-2.6-0.1c-0.3,0-0.9-0.2-1.1,0.3c-0.2,0.7,0.5,0.9,0.8,1.1
					c1.7,1,3.4,2,5.1,2.9c1.2,0.7,2.4,1.2,3.6,1.8c0.6,0.3,1.1,0.4,0.8,1.1C48.2,96.4,47.7,96.6,46.9,96.4"/>
				<path class="st4" d="M52,83.9c-0.3-0.1-0.7-0.2-1-0.4c-3.4-1.7-9.9-4.8-13.4-6.4c-0.6-0.3-0.9-0.7-0.8-1.4
					c0.2-1.2,0.8-1.9,1.9-2.3c1.5-0.5,3-0.5,4.2,0.2c2.1,0.8,4.5,3.2,4.1,5.5c-0.1,0.5,0.2,0.6,0.5,0.8c3.7,1.7,4.4,2,5,2.3
					c0.4,0.2,0.8,0.4,0.6,1C53,83.7,52.6,84,52,83.9 M45.1,78c-0.7-1.3-1.8-2.2-2.8-2.8c-1.1-0.5-2-0.7-2.9-0.6
					c-0.4,0.1-0.7,0.3-0.8,0.7c-0.1,0.4,0.2,0.6,0.5,0.7c1.8,0.9,3.6,1.7,5.3,2.6c0.2,0.1,0.5,0.2,0.7,0
					C45.4,78.4,45.2,78.1,45.1,78"/>
				<path class="st4" d="M59.5,73.6c-0.4,0.1-0.8-0.1-1.2-0.2l-10.7-3.1c-0.2-0.1-0.4-0.1-0.6-0.2c-0.2,0-0.5-0.2-0.6,0.1
					c-0.1,0.3,0.3,0.4,0.5,0.5c0.9,0.5,6.5,3.8,8.4,4.9c0.3,0.2,0.9,0.3,0.6,0.8c-0.2,0.5-0.6,0.9-1.2,0.8c-0.3,0-0.7-0.2-0.9-0.4
					c-3.8-2.6-8-4.6-11.9-7l-0.7-0.5c-0.9-0.5-1.5-1.2-1.2-2.1c0.2-1,0.9-1.8,2-2.1c1.3-0.4,2.7-0.2,3.6,0.6c0.6,0.5,1,1.1,1.2,2
					c0.1,0.5,0.4,0.7,0.9,0.8l9.5,2.9c0.8,0.3,1.7,0.4,2.5,0.4c0.4,0,1.1,0.1,1.1,0.7C60.7,73.3,60.1,73.6,59.5,73.6 M43.9,66.7
					c-0.6-0.4-1.3-0.3-2,0c-0.4,0.2-0.6,0.5-0.1,0.9l1.9,1.4c0.5,0.1,1.1,0.8,1.2-0.3C45.1,67.8,44.6,67.2,43.9,66.7"/>
				<path class="st4" d="M53.8,67.4c-2-1.5-3.9-3.2-5.6-5.2c-0.6-0.7-1.4-1.4-0.8-2.5c0.6-1.2,2.3-2.1,3.4-1.9
					c2.3,0.3,4.3,1.5,5.8,3.2c1.5,1.6,2.6,3.4,3.4,5.4c0.6,1.4,0,2.4-1.5,2.5C56.7,69.1,55.3,68.3,53.8,67.4 M58,66.7
					c-0.8-2.8-2.7-4.7-5.1-6.3c-0.5-0.3-0.9-0.7-1.4-0.9c-0.6-0.2-1.2-0.7-1.8-0.1c-0.6,0.7-0.1,1.3,0.3,1.8
					c0.6,0.8,1.3,1.5,2.1,2.2c1.5,1.5,3.2,2.9,5.2,3.7c0.2,0.1,0.5,0.3,0.8,0C58.3,67.2,58,67,58,66.7"/>
				<path class="st4" d="M62.4,63.9c0,0-0.1-0.1-0.2-0.2c-3.3-3.8-7.1-7.3-10.3-11.3c-0.8-1.1-0.7-1.7,0.4-1.9c0.4,0,0.6,0,0.7,0.2
					c1.4,1.2,3.1,1.5,4.6,2.1c1.2,0.4,1.8-0.1,1.2-1.5c-0.6-1.8-1.3-3.4-2-5.1c-0.3-0.9-0.3-1.2,0.4-1.4c0.4-0.1,0.7,0,1.2,0.4
					c3.1,2.8,5.8,4.9,8.6,6.8c0.7,0.5,1.4,1,2.3,1.3c0.6,0.2,0.8,0.5,0.7,0.9c-0.1,0.4-0.4,0.6-1,0.7c-0.5,0.1-0.9,0-1.2-0.2
					c-1.4-1-3-1.8-4.4-3.1l-1-0.8c-0.4-0.3-1.1-1.4-1.8-0.9c-0.7,0.5,0.1,1.5,0.2,2c0.1,0.5,0.4,1,0.6,1.5c0.2,0.5,0.6,0.7,0.3,1.1
					c-0.6,0.5-1,0.7-1.6,0.5c-0.8-0.3-1.6-0.6-2.4-0.9c-0.3-0.1-0.8-0.5-1.2,0c-0.4,0.6,0.2,1,0.4,1.3c1.3,1.4,2.6,2.9,4,4.3
					c0.9,1,1.9,1.9,2.9,2.9c0.5,0.5,0.9,0.8,0.4,1.3C63.6,64.3,63,64.3,62.4,63.9"/>
				<path class="st4" d="M70.4,53.1l-3.5-3.3c-2.1-2.3-4.2-4.6-6-7.1c-0.6-0.8-0.8-1.4,0.3-1.9c0.4-0.2,0.7-0.6,1-0.9
					c0.4-0.4,0.9-0.7,1.4-0.9c0.3-0.1,0.6,0,0.8,0.2c0.2,0.3,0,0.6-0.2,0.8c-0.3,0.4-0.6,0.7-1,1.1c-0.6,0.6-0.7,1.2-0.1,1.9
					c0.8,0.9,1.5,1.8,2.3,2.7c0.6,0.7,1.2,1.1,2,0.3c0.4-0.4,0.9-0.4,1.3,0c0.4,0.4,0,0.9-0.4,1.1c-1,0.6-0.6,1.1-0.1,1.6
					c0.8,0.7,1.5,1.4,2.2,2.1c0.5,0.5,0.9,0.6,1.3-0.1c0.4-0.5,0.8-1,1.3-1.4c0.3-0.4,0.8-0.3,1.1,0c0.4,0.4,0.1,0.7-0.2,0.9
					c-0.7,0.7-1.3,1.6-1.7,2.6C72.1,53.6,71,53.7,70.4,53.1"/>
				<path class="st4" d="M76.8,46.2c-2.3-2.5-4.5-5-6.6-7.5c-0.6-0.7-1.2-1.3-1.7-2c-0.5-0.7-1-0.7-1.6-0.1
					c-0.5,0.5-0.9,0.9-1.7,0.8c-0.3-0.1-0.6-0.1-0.7-0.4c-0.1-0.3,0.1-0.5,0.3-0.6c1.1-1.1,2.4-2,3.4-3.3c0.2-0.2,0.5-0.3,0.9-0.4
					c0.4-0.1,0.8-0.1,1,0.2c0.3,0.3,0,0.6-0.2,0.8c-1,0.9-0.6,1.6,0.1,2.4c2.7,2.9,5.1,6.2,8,8.9c0.4,0.3,1.1,0.7,0.5,1.4
					C77.9,46.9,77.4,46.8,76.8,46.2"/>
				<path class="st4" d="M77.4,39.2c-1.4-2-2.8-4.3-3.7-6.7c-0.3-0.8-0.9-1.8,0-2.6c1-0.9,2.8-1.3,3.8-0.7c2.1,1.1,3.6,2.8,4.5,4.9
					c0.9,2,1.4,4,1.5,6.2c0.1,1.5-0.7,2.2-2.2,1.9C79.6,41.7,78.6,40.5,77.4,39.2 M81.6,39.9c0.1-2.9-1.1-5.3-2.9-7.5
					c-0.4-0.4-0.6-1-1.1-1.3c-0.5-0.3-0.9-1.1-1.7-0.6c-0.7,0.5-0.5,1.2-0.3,1.9c0.3,0.9,0.8,1.9,1.3,2.8c1,1.9,2.1,3.7,3.8,5.2
					c0.2,0.2,0.4,0.4,0.7,0.3C81.7,40.4,81.5,40.1,81.6,39.9"/>
			</g>
		</g>
	</g>
</g>
</svg>
