<?xml version="1.0" encoding="utf-8"?>
<!-- Generator: Adobe Illustrator 22.0.0, SVG Export Plug-In . SVG Version: 6.00 Build 0)  -->
<svg version="1.1" id="Capa_1" xmlns="http://www.w3.org/2000/svg" xmlns:xlink="http://www.w3.org/1999/xlink" x="0px" y="0px"
	 viewBox="0 0 593 106" style="enable-background:new 0 0 593 106;" xml:space="preserve">
<style type="text/css">
	.st0{fill:#013556;}
</style>
<g>
	<path class="st0" d="M137,31.5h4.9v11.2c-2.9,2.4-7,3.6-11,3.6c-8.7,0-15.1-6-15.1-14.4s6.4-14.4,15.2-14.4c4.7,0,8.6,1.6,11.2,4.6
		l-3.3,3.2c-2.2-2.2-4.7-3.2-7.7-3.2c-6,0-10.2,4-10.2,9.8c0,5.7,4.2,9.8,10.1,9.8c2,0,4-0.4,5.8-1.4v-8.8H137z"/>
	<path class="st0" d="M160.6,24.2V29c-0.4-0.1-0.8-0.1-1.2-0.1c-3.8,0-6.2,2.2-6.2,6.6v10.4h-5V24.5h4.8v3.1
		C154.4,25.4,157,24.2,160.6,24.2z"/>
	<path class="st0" d="M182.6,33.3v12.5h-4.7v-2.6c-1.2,1.8-3.5,2.9-6.7,2.9c-4.9,0-8-2.7-8-6.4c0-3.6,2.4-6.4,8.9-6.4h5.5V33
		c0-2.9-1.8-4.6-5.3-4.6c-2.4,0-4.9,0.8-6.5,2.1l-2-3.6c2.3-1.8,5.6-2.6,9-2.6C179,24.2,182.6,27.2,182.6,33.3z M177.6,39.2v-2.5
		h-5.2c-3.4,0-4.3,1.3-4.3,2.8c0,1.8,1.5,3,4.1,3C174.6,42.5,176.8,41.4,177.6,39.2z"/>
	<path class="st0" d="M210,33.6v12.2h-5V34.2c0-3.8-1.9-5.6-5.1-5.6c-3.6,0-6,2.2-6,6.4v10.8h-5V24.4h4.8v2.8c1.6-2,4.2-3,7.4-3
		C206.2,24.2,210,27.2,210,33.6z"/>
	<path class="st0" d="M225.9,31.8c0-8.4,6.4-14.4,15-14.4c4.6,0,8.5,1.6,11.1,4.7l-3.4,3.2c-2-2.2-4.6-3.3-7.5-3.3
		c-5.8,0-10,4.1-10,9.8c0,5.8,4.2,9.8,10,9.8c2.9,0,5.4-1.1,7.5-3.3l3.4,3.2c-2.6,3-6.5,4.7-11.1,4.7
		C232.3,46.2,225.9,40.2,225.9,31.8z"/>
	<path class="st0" d="M268.9,24.2V29c-0.4-0.1-0.8-0.1-1.2-0.1c-3.8,0-6.2,2.2-6.2,6.6v10.4h-5V24.5h4.8v3.1
		C262.7,25.4,265.3,24.2,268.9,24.2z"/>
	<path class="st0" d="M294,24.5v21.4h-4.8v-2.7c-1.6,2-4.1,3-6.9,3c-5.5,0-9.2-3-9.2-9.4V24.6h5V36c0,3.9,1.8,5.7,5,5.7
		c3.5,0,5.8-2.2,5.8-6.4V24.5H294z"/>
	<path class="st0" d="M317.2,41.8v4h-18.4v-3.2l11.7-14.2H299v-4h17.9v3.2l-11.8,14.2H317.2z"/>
	<path class="st0" d="M339.7,33.3v12.5H335v-2.6c-1.2,1.8-3.5,2.9-6.7,2.9c-4.9,0-8-2.7-8-6.4c0-3.6,2.4-6.4,8.9-6.4h5.5V33
		c0-2.9-1.8-4.6-5.3-4.6c-2.4,0-4.9,0.8-6.5,2.1l-2-3.6c2.3-1.8,5.6-2.6,9-2.6C336.1,24.2,339.7,27.2,339.7,33.3z M334.7,39.2v-2.5
		h-5.1c-3.4,0-4.3,1.3-4.3,2.8c0,1.8,1.5,3,4.1,3C331.7,42.5,333.9,41.4,334.7,39.2z"/>
	<path class="st0" d="M367.2,16.2v29.7h-4.8v-2.8c-1.7,2-4.2,3-7.1,3c-6.2,0-10.8-4.3-10.8-11c0-6.6,4.6-10.9,10.8-10.9
		c2.8,0,5.2,0.9,6.9,2.9v-11L367.2,16.2L367.2,16.2z M362.3,35.2c0-4.1-2.8-6.7-6.4-6.7c-3.6,0-6.4,2.6-6.4,6.7
		c0,4.1,2.8,6.7,6.4,6.7C359.5,41.8,362.3,39.2,362.3,35.2z"/>
	<path class="st0" d="M391.7,33.3v12.5H387v-2.6c-1.2,1.8-3.5,2.9-6.7,2.9c-4.9,0-8-2.7-8-6.4c0-3.6,2.4-6.4,8.9-6.4h5.5V33
		c0-2.9-1.8-4.6-5.3-4.6c-2.4,0-4.9,0.8-6.5,2.1l-2-3.6c2.3-1.8,5.6-2.6,9-2.6C388.1,24.2,391.7,27.2,391.7,33.3z M386.7,39.2v-2.5
		h-5.2c-3.4,0-4.3,1.3-4.3,2.8c0,1.8,1.5,3,4.1,3C383.7,42.5,385.8,41.4,386.7,39.2z"/>
	<path class="st0" d="M434.5,17.8v28h-4.3l-15.4-19v19h-5.2v-28h4.3l15.4,19v-19H434.5z"/>
	<path class="st0" d="M459.4,33.3v12.5h-4.7v-2.6c-1.2,1.8-3.5,2.9-6.7,2.9c-4.9,0-8-2.7-8-6.4c0-3.6,2.4-6.4,8.9-6.4h5.5V33
		c0-2.9-1.8-4.6-5.3-4.6c-2.4,0-4.9,0.8-6.5,2.1l-2-3.6c2.3-1.8,5.6-2.6,9-2.6C455.8,24.2,459.4,27.2,459.4,33.3z M454.4,39.2v-2.5
		h-5.2c-3.4,0-4.3,1.3-4.3,2.8c0,1.8,1.5,3,4.1,3C451.4,42.5,453.5,41.4,454.4,39.2z"/>
	<path class="st0" d="M464.2,35.2c0-6.4,4.8-10.9,11.6-10.9c4.2,0,7.5,1.7,9.1,5l-3.8,2.2c-1.3-2-3.2-3-5.3-3
		c-3.7,0-6.5,2.6-6.5,6.7c0,4.2,2.8,6.7,6.5,6.7c2.1,0,4-0.9,5.3-3l3.8,2.2c-1.6,3.2-5,5-9.1,5C469,46.1,464.2,41.6,464.2,35.2z"/>
	<path class="st0" d="M488.5,18c0-1.7,1.4-3,3.2-3s3.2,1.2,3.2,2.9c0,1.8-1.3,3.1-3.2,3.1C489.9,21,488.5,19.6,488.5,18z
		 M489.2,24.5h5v21.4h-5V24.5z"/>
	<path class="st0" d="M499,35.2c0-6.4,4.8-10.9,11.4-10.9c6.6,0,11.4,4.5,11.4,10.9s-4.8,11-11.4,11C503.8,46.1,499,41.6,499,35.2z
		 M516.7,35.2c0-4.1-2.7-6.7-6.4-6.7c-3.6,0-6.3,2.6-6.3,6.7c0,4.1,2.7,6.7,6.3,6.7C514,41.8,516.7,39.2,516.7,35.2z"/>
	<path class="st0" d="M547.6,33.6v12.2h-5V34.2c0-3.8-1.9-5.6-5.1-5.6c-3.6,0-6,2.2-6,6.4v10.8h-5V24.4h4.8v2.8c1.6-2,4.2-3,7.4-3
		C543.8,24.2,547.6,27.2,547.6,33.6z"/>
	<path class="st0" d="M571.9,33.3v12.5h-4.7v-2.6c-1.2,1.8-3.5,2.9-6.7,2.9c-4.9,0-8-2.7-8-6.4c0-3.6,2.4-6.4,8.9-6.4h5.5V33
		c0-2.9-1.8-4.6-5.3-4.6c-2.4,0-4.9,0.8-6.5,2.1l-2-3.6c2.3-1.8,5.6-2.6,9-2.6C568.3,24.2,571.9,27.2,571.9,33.3z M566.9,39.2v-2.5
		h-5.2c-3.4,0-4.3,1.3-4.3,2.8c0,1.8,1.5,3,4.1,3C563.9,42.5,566,41.4,566.9,39.2z"/>
	<path class="st0" d="M578.3,16.2h5v29.7h-5V16.2z"/>
	<path class="st0" d="M140,83.2c0,6.6-4.6,11-10.8,11c-2.7,0-5.1-0.9-6.8-2.9v10.4h-5V72.6h4.8v2.8c1.7-2,4.2-3,7.1-3
		C135.4,72.2,140,76.6,140,83.2z M135,83.2c0-4.1-2.7-6.7-6.3-6.7s-6.4,2.6-6.4,6.7c0,4.1,2.8,6.7,6.4,6.7
		C132.2,89.8,135,87.2,135,83.2z"/>
	<path class="st0" d="M143,83.2c0-6.4,4.8-10.9,11.4-10.9c6.6,0,11.4,4.5,11.4,10.9s-4.8,11-11.4,11C147.8,94.1,143,89.6,143,83.2z
		 M160.8,83.2c0-4.1-2.7-6.7-6.4-6.7c-3.6,0-6.3,2.6-6.3,6.7c0,4.1,2.7,6.7,6.3,6.7C158,89.8,160.8,87.2,160.8,83.2z"/>
	<path class="st0" d="M183,72.2V77c-0.4-0.1-0.8-0.1-1.2-0.1c-3.8,0-6.2,2.2-6.2,6.6v10.4h-5V72.5h4.8v3.1
		C176.8,73.4,179.4,72.2,183,72.2z"/>
	<path class="st0" d="M198.4,64.2h5v29.7h-5V64.2z"/>
	<path class="st0" d="M227.9,81.3v12.5h-4.7v-2.6c-1.2,1.8-3.5,2.9-6.7,2.9c-4.9,0-8-2.7-8-6.4c0-3.6,2.4-6.4,8.9-6.4h5.5V81
		c0-2.9-1.8-4.6-5.3-4.6c-2.4,0-4.9,0.8-6.5,2.1l-2-3.6c2.3-1.8,5.6-2.6,9-2.6C224.3,72.2,227.9,75.2,227.9,81.3z M222.9,87.2v-2.5
		h-5.2c-3.4,0-4.3,1.3-4.3,2.8c0,1.8,1.5,3,4.1,3C219.9,90.5,222,89.4,222.9,87.2z"/>
	<path class="st0" d="M270.7,65.8v28h-4.3l-15.4-19v19h-5.2v-28h4.3l15.4,19v-19H270.7z"/>
	<path class="st0" d="M298.4,72.5v21.4h-4.8v-2.7c-1.6,2-4.1,3-6.9,3c-5.5,0-9.2-3-9.2-9.4V72.6h5V84c0,3.9,1.8,5.7,5,5.7
		c3.5,0,5.8-2.2,5.8-6.4V72.5H298.4z"/>
	<path class="st0" d="M317.8,92.7c-1.2,1-3,1.4-4.8,1.4c-4.7,0-7.4-2.5-7.4-7.2V76.6h-3.5v-4h3.5v-4.9h5v4.9h5.7v4h-5.7v10.2
		c0,2.1,1,3.2,3,3.2c1,0,2-0.3,2.8-0.9L317.8,92.7z"/>
	<path class="st0" d="M334.3,72.2V77c-0.4-0.1-0.8-0.1-1.2-0.1c-3.8,0-6.2,2.2-6.2,6.6v10.4h-5V72.5h4.8v3.1
		C328.1,73.4,330.7,72.2,334.3,72.2z"/>
	<path class="st0" d="M337.8,66c0-1.7,1.4-3,3.2-3s3.2,1.2,3.2,2.9c0,1.8-1.3,3.1-3.2,3.1C339.2,69,337.8,67.6,337.8,66z
		 M338.5,72.5h5v21.4h-5V72.5z"/>
	<path class="st0" d="M348.3,83.2c0-6.4,4.8-10.9,11.6-10.9c4.2,0,7.5,1.7,9.1,5l-3.8,2.2c-1.3-2-3.2-3-5.3-3
		c-3.7,0-6.5,2.6-6.5,6.7c0,4.2,2.8,6.7,6.5,6.7c2.1,0,4-0.9,5.3-3l3.8,2.2c-1.6,3.2-5,5-9.1,5C353.1,94.1,348.3,89.6,348.3,83.2z"
		/>
	<path class="st0" d="M372.6,66c0-1.7,1.4-3,3.2-3c1.8,0,3.2,1.2,3.2,2.9c0,1.8-1.3,3.1-3.2,3.1C374,69,372.6,67.6,372.6,66z
		 M373.3,72.5h5v21.4h-5V72.5z"/>
	<path class="st0" d="M383.1,83.2c0-6.4,4.8-10.9,11.4-10.9c6.6,0,11.4,4.5,11.4,10.9s-4.8,11-11.4,11
		C387.9,94.1,383.1,89.6,383.1,83.2z M400.8,83.2c0-4.1-2.7-6.7-6.4-6.7c-3.6,0-6.3,2.6-6.3,6.7c0,4.1,2.7,6.7,6.3,6.7
		C398.1,89.8,400.8,87.2,400.8,83.2z M396.5,64.1h5.9l-7,5.5h-4.3L396.5,64.1z"/>
	<path class="st0" d="M431.7,81.6v12.2h-5V82.2c0-3.8-1.9-5.6-5.1-5.6c-3.6,0-6,2.2-6,6.4v10.8h-5V72.4h4.8v2.8c1.6-2,4.2-3,7.4-3
		C427.9,72.2,431.7,75.2,431.7,81.6z"/>
</g>
<path class="st0" d="M53.9,4.5C27.3,4.5,5.7,26.1,5.7,52.7c0,26.6,21.6,48.2,48.2,48.2s48.2-21.6,48.2-48.2
	C102.2,26.1,80.6,4.5,53.9,4.5z M68.1,32c0,0.4-0.3,0.8-0.8,0.8h-6.1c-1.5,0-2.7,1.2-2.7,2.7v6.4h8.7c0.5,0,0.8,0.4,0.8,0.8l-0.8,9
	c0,0.4-0.4,0.7-0.8,0.7h-8v30c0,0.4-0.3,0.8-0.8,0.8h-11c-0.4,0-0.8-0.3-0.8-0.8V52.9v-0.5h-5.5c-0.4,0-0.8-0.3-0.8-0.8v-9
	c0-0.4,0.3-0.8,0.8-0.8h5.5v-8.7c0-6.1,4.9-11,11-11h10.4c0.4,0,0.8,0.3,0.8,0.8V32H68.1z"/>
</svg>
