<?xml version="1.0" encoding="utf-8"?>
<!-- Generator: Adobe Illustrator 22.0.0, SVG Export Plug-In . SVG Version: 6.00 Build 0)  -->
<svg version="1.1" id="Layer_1" xmlns="http://www.w3.org/2000/svg" xmlns:xlink="http://www.w3.org/1999/xlink" x="0px" y="0px"
	 viewBox="0 0 274.5 278.1" style="enable-background:new 0 0 274.5 278.1;" xml:space="preserve">
<style type="text/css">
	.st0{fill:#013556;}
	.st1{fill:#29ABE2;}
	.st2{fill:#195CA0;}
</style>
<path class="st0" d="M78.6,133.6c-12.7,0-23.1,10.3-23.1,23.1c0,12.7,10.3,23.1,23.1,23.1s23.1-10.3,23.1-23.1
	C101.7,143.9,91.4,133.6,78.6,133.6z M85.4,146.8c0,0.2-0.1,0.4-0.4,0.4h-2.9c-0.7,0-1.3,0.6-1.3,1.3v3.1H85c0.2,0,0.4,0.2,0.4,0.4
	l-0.4,4.3c0,0.2-0.2,0.3-0.4,0.3h-3.8V171c0,0.2-0.1,0.4-0.4,0.4h-5.3c-0.2,0-0.4-0.1-0.4-0.4v-14.1v-0.2h-2.6
	c-0.2,0-0.4-0.1-0.4-0.4V152c0-0.2,0.1-0.4,0.4-0.4h2.6v-4.2c0-2.9,2.3-5.3,5.3-5.3h5c0.2,0,0.4,0.1,0.4,0.4L85.4,146.8L85.4,146.8z
	"/>
<path class="st0" d="M137,133.8c-12.7,0-23,10.3-23,23s10.3,23,23,23s23-10.3,23-23S149.7,133.8,137,133.8z M151.1,147.9
	c0,0.1,0,0.2-0.1,0.4c-0.7,0.9-1.4,1.7-2.3,2.3c-0.1,0.1-0.3,0.2-0.3,0.4c0,4.7-1.2,9.3-4.6,12.7c-4.4,4.3-10.9,5.5-16.7,3.9
	c-1.1-0.3-2.2-0.8-3.2-1.3c-0.3-0.2-0.7-0.4-1-0.6c-0.1,0-0.1-0.1-0.1-0.2c0,0,0.1,0,0.4,0c1.6,0.1,3.3-0.1,4.8-0.6
	c0.9-0.3,2.6-0.9,3.2-1.7l0,0c-0.2,0-0.4,0-0.6-0.1c-1.6-0.4-3.7-1.2-4.6-3.9c0-0.1,0-0.2,0.1-0.2c1.3,0.1,1.8,0,2.2,0
	c-0.2,0-0.5-0.1-0.8-0.2c-2-0.8-3.4-2.7-3.7-4.8c0-0.2,0-0.4,0-0.7c0-0.1,0.1-0.2,0.2-0.1c1,0.5,2.2,0.7,2.2,0.6
	c-0.2-0.2-0.5-0.4-0.7-0.6c-1.7-1.6-2.4-4.9-1-7c0.1-0.1,0.2-0.1,0.3,0c3.2,3.6,7,5.3,11.7,5.9c0.1,0,0.1,0,0.1-0.1
	c-0.1-0.8-0.1-1.6,0-2.4c0.2-0.9,0.6-1.6,1.1-2.3s1.2-1.2,1.9-1.6c0.7-0.3,1.4-0.6,2.2-0.7l0,0l0,0c0,0,0.1,0,0.2,0
	c0.9,0,1.7,0.1,2.5,0.4c0.6,0.2,1.1,0.6,1.6,1c0.1,0.1,0.2,0.2,0.3,0.3c0,0,0.1,0.1,0.2,0c1.2-0.3,2.3-0.7,3.4-1.3h0.1v0.1
	c-0.2,0.6-0.5,1.2-1,1.7c-0.3,0.3-1,1.1-1.4,1.2c1-0.1,2-0.4,2.9-0.8C151.1,147.9,151.1,147.8,151.1,147.9L151.1,147.9z"/>
<g>
	<path class="st0" d="M198.9,144.6h-12.1c-3.4,0-6.3,2.8-6.3,6.3V163c0,3.4,2.8,6.3,6.3,6.3h12.1c3.4,0,6.3-2.8,6.3-6.3v-12.1
		C205.1,147.3,202.3,144.6,198.9,144.6z M192.9,164.3c-4.1,0-7.5-3.4-7.5-7.5s3.4-7.5,7.5-7.5s7.5,3.4,7.5,7.5
		C200.4,161,197,164.3,192.9,164.3z M200.8,150.6c-1,0-1.8-0.8-1.8-1.8s0.8-1.8,1.8-1.8s1.8,0.8,1.8,1.8
		C202.6,149.9,201.8,150.6,200.8,150.6z"/>
	<path class="st0" d="M192.9,152.1c-2.6,0-4.8,2.2-4.8,4.8s2.2,4.8,4.8,4.8s4.8-2.2,4.8-4.8C197.7,154.2,195.6,152.1,192.9,152.1z"
		/>
	<path class="st0" d="M192.7,134c-12.6,0-22.9,10.2-22.9,22.9s10.2,22.9,22.9,22.9s22.9-10.2,22.9-22.9S205.4,134,192.7,134z
		 M208,162.9c0,5-4.1,9.1-9.1,9.1h-12.1c-5,0-9.1-4.1-9.1-9.1v-12.1c0-5,4.1-9.1,9.1-9.1h12.1c5,0,9.1,4.1,9.1,9.1V162.9z"/>
</g>
<g>
	<g>
		<path class="st1" d="M155.9,262.1C84.6,274.7,16.4,226.9,3.8,155.7C-7.9,88.9,36.7,24.9,103.7,13.2c62.5-11,122.4,30.9,133.6,93.6
			c10.3,58.6-29,114.8-87.6,125.1c-53.5,9.4-104.6-24.6-116.3-77.4c-0.2-0.8,0.3-1.4,0.9-1.6c0.8-0.2,1.4,0.3,1.6,0.9
			c11.6,51.4,61.3,84.7,113.3,75.4c57.2-10,95.6-64.9,85.4-122.1C223.8,45.9,165.3,4.9,104.2,15.7C38.8,27.1-5,89.7,6.5,155.1
			C18.9,225,85.7,271.7,155.4,259.5c73.4-13,122.7-80.9,112.2-154.6c-0.2-0.8,0.5-1.4,1.1-1.6c0.8-0.2,1.4,0.5,1.6,1.1
			c5.2,36.1-3.9,72.3-25.2,101.7C223.6,235.9,191.9,255.7,155.9,262.1z"/>
	</g>
	<g>
		<path class="st1" d="M264.1,105.7c-0.5-2.7,1.4-5.2,4.2-5.6c2.7-0.5,5.2,1.4,5.6,4.2c0.5,2.7-1.4,5.2-4.2,5.6
			C267,110.2,264.4,108.5,264.1,105.7z"/>
	</g>
	<g>
		<path class="st1" d="M39.4,153.2c-0.6-2.7-3.3-4.4-6-3.8c-2.7,0.6-4.4,3.3-3.8,6s3.3,4.4,6,3.8C38.3,158.5,40,155.8,39.4,153.2z"
			/>
	</g>
</g>
<g>
	<path class="st2" d="M73.2,78c1-0.2,2.5-0.4,4-0.4c2.6,0,4.4,0.6,5.7,1.8c1.8,1.6,2.7,4.3,2.7,8.3c0,4.1-1.1,7.1-2.9,8.6
		c-1.4,1.3-3.4,2-6.2,2c-1.2,0-2.5-0.1-3.3-0.2V78z M77.2,95c0.2,0.1,0.5,0.1,0.7,0.1c1.9,0,3.6-1.9,3.6-7.5c0-4.2-1.1-6.7-3.5-6.7
		c-0.3,0-0.5,0-0.8,0.1V95z"/>
	<path class="st2" d="M91.1,92.1c0.1,2.3,1.4,3.2,3.2,3.2c1.1,0,2.1-0.2,2.8-0.5l0.5,2.9c-1,0.4-2.6,0.7-4.1,0.7
		c-4,0-6.2-2.7-6.2-7.3c0-5,2.6-7.9,5.9-7.9c3.2,0,5,2.5,5,7c0,1.1,0,1.6-0.1,2.1H91.1z M94.6,89.3c0-1.9-0.5-3.4-1.7-3.4
		c-1.3,0-1.8,1.9-1.9,3.4H94.6z"/>
	<path class="st2" d="M100.4,94.5c0.6,0.4,1.7,0.8,2.7,0.8c1,0,1.6-0.5,1.6-1.3c0-0.8-0.4-1.2-1.7-2c-2.4-1.4-3-2.9-3-4.3
		c0-2.7,1.9-4.7,4.9-4.7c1.2,0,2.2,0.3,3,0.7l-0.7,2.9c-0.6-0.3-1.3-0.6-2.1-0.6c-1,0-1.5,0.6-1.5,1.3c0,0.7,0.3,1,1.7,1.8
		c2.2,1.2,3,2.8,3,4.5c0,3-2.2,4.7-5.2,4.7c-1.2,0-2.7-0.3-3.4-0.8L100.4,94.5z"/>
	<path class="st2" d="M118.5,97.9c-0.4,0.2-1.4,0.4-2.5,0.4c-3.8,0-6.2-2.6-6.2-7.5c0-4.6,2.7-7.8,6.8-7.8c0.9,0,1.8,0.2,2.2,0.4
		l-0.5,3.1c-0.3-0.1-0.8-0.3-1.5-0.3c-1.9,0-3,1.8-3,4.4c0,2.7,1.1,4.3,3,4.3c0.6,0,1.1-0.1,1.5-0.3L118.5,97.9z"/>
	<path class="st2" d="M130.5,94.7c0,1.2,0.1,2.4,0.2,3.4h-3.6l-0.2-1.5h-0.1c-0.8,1.2-2,1.7-3.3,1.7c-2.2,0-3.9-1.9-3.9-4.5
		c0-3.9,3.4-5.5,6.8-5.5V88c0-1.2-0.7-2-2.1-2c-1.2,0-2.2,0.3-3,0.8l-0.7-2.7c0.8-0.5,2.5-1.1,4.6-1.1c4.5,0,5.2,3.2,5.2,6.2V94.7z
		 M126.7,90.9c-1.3,0-3.2,0.5-3.2,2.5c0,1.5,0.8,2,1.4,2c0.6,0,1.4-0.4,1.6-1.3c0.1-0.2,0.1-0.5,0.1-0.7V90.9z"/>
	<path class="st2" d="M133.3,87.8c0-1.5-0.1-3.1-0.1-4.5h3.5l0.2,2.2h0.1c0.7-1.6,1.9-2.4,2.9-2.4c0.4,0,0.6,0,0.8,0.1v3.9
		c-0.2-0.1-0.5-0.1-0.8-0.1c-0.8,0-2,0.6-2.4,2.1c-0.1,0.3-0.2,0.8-0.2,1.5v7.5h-4V87.8z"/>
	<path class="st2" d="M153,96.5c0,3.2-0.6,4.9-1.8,6.1c-1.1,1-2.6,1.6-4.8,1.6c-1.4,0-2.6-0.2-3.7-0.7l0.7-3.1
		c0.8,0.3,1.7,0.6,2.9,0.6c2,0,2.8-1.3,2.8-3.6v-0.9H149c-0.5,0.9-1.5,1.5-2.7,1.5c-3.3,0-4.6-3.6-4.6-7.2c0-4.9,2.2-7.8,5-7.8
		c1.2,0,2.2,0.6,2.7,1.7h0.1l0.2-1.5h3.5c-0.1,1.3-0.2,2.9-0.2,4.7V96.5z M149,88.7c0-0.4-0.1-0.8-0.2-1.1c-0.2-0.6-0.6-1.2-1.3-1.2
		c-1.4,0-2,1.9-2,4.4c0,2.8,0.8,4.2,1.9,4.2c0.5,0,1-0.3,1.3-1.1c0.1-0.3,0.2-0.8,0.2-1.2V88.7z"/>
	<path class="st2" d="M165.7,94.7c0,1.2,0.1,2.4,0.2,3.4h-3.6l-0.2-1.5h-0.1c-0.8,1.2-2,1.7-3.3,1.7c-2.2,0-3.9-1.9-3.9-4.5
		c0-3.9,3.4-5.5,6.8-5.5V88c0-1.2-0.7-2-2.1-2c-1.2,0-2.2,0.3-3,0.8l-0.7-2.7c0.8-0.5,2.5-1.1,4.6-1.1c4.5,0,5.2,3.2,5.2,6.2V94.7z
		 M161.8,90.9c-1.3,0-3.2,0.5-3.2,2.5c0,1.5,0.8,2,1.4,2c0.6,0,1.4-0.4,1.6-1.3c0.1-0.2,0.1-0.5,0.1-0.7V90.9z"/>
	<path class="st2" d="M168.4,94.5c0.6,0.4,1.7,0.8,2.7,0.8c1,0,1.6-0.5,1.6-1.3c0-0.8-0.4-1.2-1.7-2c-2.4-1.4-3-2.9-3-4.3
		c0-2.7,1.9-4.7,4.9-4.7c1.2,0,2.2,0.3,3,0.7l-0.7,2.9c-0.6-0.3-1.3-0.6-2.1-0.6c-1,0-1.5,0.6-1.5,1.3c0,0.7,0.3,1,1.7,1.8
		c2.2,1.2,3,2.8,3,4.5c0,3-2.2,4.7-5.2,4.7c-1.2,0-2.7-0.3-3.4-0.8L168.4,94.5z"/>
</g>
</svg>
