<?xml version="1.0" encoding="utf-8"?>
<!-- Generator: Adobe Illustrator 22.0.0, SVG Export Plug-In . SVG Version: 6.00 Build 0)  -->
<svg version="1.1" id="Capa_1" xmlns="http://www.w3.org/2000/svg" xmlns:xlink="http://www.w3.org/1999/xlink" x="0px" y="0px"
	 viewBox="0 0 586 102" style="enable-background:new 0 0 586 102;" xml:space="preserve">
<style type="text/css">
	.st0{fill:#013556;}
</style>
<g>
	<path class="st0" d="M170.1,49.7c0,8.7-3.6,13.9-9.6,13.9c-3.2,0-5.5-1.5-6.4-4.3c-2,2.8-5,4.3-9,4.3c-6.9,0-12-5.2-12-12.8
		c0-7.4,5.1-12.7,12-12.7c3.5,0,6.4,1.2,8.4,3.5v-3.2h5.6v17c0,2.6,1.2,3.4,2.6,3.4c2.7,0,4.2-3.2,4.2-9.1
		c0-10.7-7.8-17.9-19.2-17.9c-11.6,0-19.3,7.8-19.3,18.7c0,11.1,7.6,18.8,19.1,18.8c3.1,0,6.7-0.7,9.7-2.2l1.4,4
		c-3.1,1.5-7.4,2.3-11.1,2.3c-14.2,0-23.7-9.7-23.7-22.9c0-13.1,9.6-22.8,23.9-22.8C160.4,27.8,170.1,36.9,170.1,49.7z M153.6,50.8
		c0-5-3.2-7.8-7.4-7.8c-4.4,0-7.4,3-7.4,7.8c0,4.9,3.1,7.9,7.4,7.9C150.4,58.7,153.6,55.8,153.6,50.8z"/>
	<path class="st0" d="M200.8,45.3h6.2v14c-3.6,3-8.8,4.5-13.7,4.5c-10.9,0-18.9-7.6-18.9-18c0-10.5,8-18,19-18
		c5.9,0,10.8,2,14.1,5.7l-4.1,4c-2.8-2.8-5.9-4-9.7-4c-7.5,0-12.7,5-12.7,12.3c0,7.1,5.3,12.3,12.7,12.3c2.5,0,5-0.5,7.2-1.8v-11
		H200.8z"/>
	<path class="st0" d="M230.4,36.2v6c-0.6-0.1-1-0.1-1.5-0.1c-4.8,0-7.8,2.8-7.8,8.2v13h-6.3V36.6h6v3.9
		C222.7,37.6,225.9,36.2,230.4,36.2z"/>
	<path class="st0" d="M257.9,47.6v15.7H252V60c-1.5,2.3-4.4,3.6-8.4,3.6c-6.1,0-10-3.3-10-8c0-4.5,3-8,11.1-8h6.9v-0.4
		c0-3.7-2.2-5.8-6.7-5.8c-3,0-6.1,1-8.1,2.7l-2.5-4.5c2.9-2.2,7-3.3,11.3-3.3C253.4,36.2,257.9,39.9,257.9,47.6z M251.6,54.9v-3.1
		h-6.5c-4.3,0-5.4,1.6-5.4,3.6c0,2.2,1.9,3.7,5.1,3.7C247.9,59,250.6,57.6,251.6,54.9z"/>
	<path class="st0" d="M292.2,47.9v15.3h-6.3V48.7c0-4.8-2.4-7.1-6.4-7.1c-4.5,0-7.5,2.7-7.5,8.1v13.5h-6.3V36.5h6V40
		c2-2.5,5.3-3.8,9.2-3.8C287.4,36.2,292.2,39.9,292.2,47.9z"/>
	<path class="st0" d="M298.2,45.7c0-10.5,8-18,18.8-18c5.7,0,10.6,2,13.9,5.9l-4.2,4c-2.6-2.8-5.7-4.1-9.4-4.1
		c-7.3,0-12.5,5.1-12.5,12.3s5.3,12.3,12.5,12.3c3.6,0,6.8-1.4,9.4-4.2l4.2,4c-3.3,3.8-8.2,5.9-13.9,5.9
		C306.2,63.7,298.2,56.2,298.2,45.7z"/>
	<path class="st0" d="M351.9,36.2v6c-0.6-0.1-1-0.1-1.5-0.1c-4.8,0-7.8,2.8-7.8,8.2v13h-6.1V36.6h6v3.9
		C344.2,37.6,347.5,36.2,351.9,36.2z"/>
	<path class="st0" d="M383.3,36.5v26.7h-6v-3.4c-2,2.5-5.2,3.8-8.6,3.8c-6.9,0-11.5-3.8-11.5-11.8V36.6h6.2V51
		c0,4.9,2.3,7.2,6.3,7.2c4.4,0,7.3-2.7,7.3-8.1V36.6h6.3V36.5z"/>
	<path class="st0" d="M412.4,58.2v5h-23.1v-4L404,41.4h-14.4v-5H412v4l-14.7,17.8H412.4z"/>
	<path class="st0" d="M440.5,47.6v15.7h-5.9V60c-1.5,2.3-4.4,3.6-8.4,3.6c-6.1,0-10-3.3-10-8c0-4.5,3-8,11.1-8h6.9v-0.4
		c0-3.7-2.2-5.8-6.7-5.8c-3,0-6.1,1-8.1,2.7l-2.5-4.5c2.9-2.2,7-3.3,11.3-3.3C436,36.2,440.5,39.9,440.5,47.6z M434.2,54.9v-3.1
		h-6.5c-4.2,0-5.4,1.6-5.4,3.6c0,2.2,1.9,3.7,5.1,3.7C430.5,59,433.2,57.6,434.2,54.9z"/>
	<path class="st0" d="M474.9,26.1v37.1h-6v-3.5c-2.1,2.5-5.2,3.8-8.9,3.8c-7.8,0-13.5-5.4-13.5-13.7c0-8.3,5.8-13.7,13.5-13.7
		c3.5,0,6.5,1.2,8.6,3.6V26h6.3V26.1z M468.7,49.9c0-5.1-3.5-8.4-8-8.4s-8,3.2-8,8.4c0,5.1,3.5,8.4,8,8.4
		C465.3,58.2,468.7,55,468.7,49.9z"/>
	<path class="st0" d="M505.4,47.6v15.7h-5.9V60c-1.5,2.3-4.4,3.6-8.4,3.6c-6.1,0-10-3.3-10-8c0-4.5,3-8,11.1-8h6.9v-0.4
		c0-3.7-2.2-5.8-6.7-5.8c-3,0-6.1,1-8.1,2.7l-2.5-4.5c2.9-2.2,7-3.3,11.3-3.3C501,36.2,505.4,39.9,505.4,47.6z M499.2,54.9v-3.1
		h-6.5c-4.2,0-5.4,1.6-5.4,3.6c0,2.2,1.9,3.7,5.1,3.7C495.5,59,498.1,57.6,499.2,54.9z"/>
	<path class="st0" d="M537.9,45.3h6.2v14c-3.7,3-8.8,4.5-13.7,4.5c-10.9,0-18.9-7.6-18.9-18c0-10.5,8-18,19-18
		c5.9,0,10.8,2,14.1,5.7l-4.1,4c-2.8-2.8-5.9-4-9.7-4c-7.5,0-12.7,5-12.7,12.3c0,7.1,5.2,12.3,12.7,12.3c2.5,0,5-0.5,7.2-1.8
		L537.9,45.3L537.9,45.3z"/>
	<path class="st0" d="M559.7,33.7h-11.6v-5.5h29.7v5.5h-11.6v29.5h-6.5L559.7,33.7L559.7,33.7z"/>
</g>
<g>
	<path class="st0" d="M70.1,25.1H44.8c-7.2,0-13.1,5.9-13.1,13.1v25.3c0,7.2,5.9,13.1,13.1,13.1h25.3c7.2,0,13.1-5.9,13.1-13.1V38.2
		C83.2,30.9,77.3,25.1,70.1,25.1z M57.7,66.4c-8.6,0-15.6-7-15.6-15.6s7-15.6,15.6-15.6s15.6,7,15.6,15.6S66.3,66.4,57.7,66.4z
		 M74.2,37.8c-2,0-3.7-1.7-3.7-3.7s1.7-3.7,3.7-3.7s3.7,1.7,3.7,3.7C77.9,36.2,76.3,37.8,74.2,37.8z"/>
	<path class="st0" d="M57.7,40.8c-5.5,0-10,4.5-10,10s4.5,10,10,10s10-4.5,10-10S63.2,40.8,57.7,40.8z"/>
	<path class="st0" d="M57.3,3C30.9,3,9.5,24.4,9.5,50.8s21.4,47.8,47.8,47.8s47.8-21.4,47.8-47.8S83.7,3,57.3,3z M89.1,63.4
		c0,10.5-8.5,19-19,19H44.8c-10.5,0-19-8.5-19-19V38.1c0-10.5,8.5-19,19-19h25.3c10.5,0,19,8.5,19,19V63.4z"/>
</g>
</svg>
