<?xml version="1.0" encoding="utf-8"?>
<!-- Generator: Adobe Illustrator 22.0.0, SVG Export Plug-In . SVG Version: 6.00 Build 0)  -->
<svg version="1.1" id="Capa_1" xmlns="http://www.w3.org/2000/svg" xmlns:xlink="http://www.w3.org/1999/xlink" x="0px" y="0px"
	 viewBox="0 0 586 101" style="enable-background:new 0 0 586 101;" xml:space="preserve">
<style type="text/css">
	.st0{fill:#013556;}
</style>
<path class="st0" d="M53.9,2c-26.5,0-48,21.5-48,48s21.5,48,48,48s48-21.5,48-48S80.5,2,53.9,2z M83.4,31.5c0,0.2,0,0.5-0.3,0.9
	c-1.4,1.9-2.9,3.5-4.8,4.9c-0.3,0.2-0.7,0.4-0.7,0.8c0,9.8-2.5,19.5-9.6,26.6c-9.1,9-22.7,11.5-34.8,8.1c-2.3-0.6-4.6-1.6-6.7-2.7
	c-0.7-0.4-1.4-0.8-2.1-1.2c-0.2-0.1-0.3-0.3-0.2-0.4c0.1-0.1,0.3-0.1,0.8,0c3.4,0.3,6.9-0.2,10.1-1.3c1.8-0.6,5.5-1.8,6.6-3.5
	c0,0,0.1,0,0.1-0.1c-0.4-0.1-0.9-0.1-1.3-0.2c-3.3-0.9-7.7-2.6-9.7-8.1c-0.1-0.3,0-0.5,0.3-0.4c2.7,0.2,3.7,0.1,4.6-0.1
	c-0.5-0.1-1.1-0.3-1.6-0.5c-4.1-1.6-7.2-5.6-7.7-10c-0.1-0.5-0.1-0.9-0.1-1.4c0-0.3,0.2-0.4,0.5-0.2c2.1,1.1,4.5,1.4,4.7,1.3
	c-0.5-0.4-1-0.9-1.5-1.3c-3.6-3.4-5-10.3-2.1-14.6c0.2-0.3,0.4-0.3,0.7,0c6.6,7.5,14.6,11,24.4,12.4c0.3,0,0.3,0,0.2-0.3
	c-0.3-1.7-0.3-3.4,0.1-5.1c0.4-1.8,1.3-3.4,2.4-4.8c1.1-1.4,2.5-2.5,4-3.3c1.4-0.7,3-1.2,4.6-1.4l0,0l0,0c0.1,0,0.3,0,0.4,0
	c1.8-0.1,3.6,0.2,5.3,0.8c1.3,0.5,2.4,1.2,3.4,2.1c0.2,0.2,0.4,0.4,0.6,0.6c0.1,0.1,0.3,0.2,0.5,0.1c2.5-0.6,4.8-1.5,7.1-2.7
	c0.1-0.1,0.2-0.1,0.3,0s0.1,0.2,0,0.3c-0.4,1.3-1.1,2.5-2,3.6c-0.6,0.7-2,2.4-2.9,2.6c2-0.3,4.1-0.9,6-1.7
	C83.4,31.4,83.4,31.3,83.4,31.5L83.4,31.5z"/>
<g>
	<path class="st0" d="M170.1,50.8c0,8.7-3.6,13.9-9.6,13.9c-3.2,0-5.5-1.5-6.4-4.3c-2,2.8-5,4.3-9,4.3c-6.9,0-12-5.2-12-12.8
		c0-7.4,5.1-12.7,12-12.7c3.5,0,6.4,1.2,8.4,3.5v-3.2h5.6v17c0,2.6,1.2,3.4,2.6,3.4c2.7,0,4.2-3.2,4.2-9.1
		c0-10.7-7.8-17.9-19.2-17.9c-11.6,0-19.3,7.8-19.3,18.7c0,11.1,7.6,18.8,19.1,18.8c3.1,0,6.7-0.7,9.7-2.2l1.4,4
		c-3.1,1.5-7.4,2.3-11.1,2.3c-14.2,0-23.7-9.7-23.7-22.9c0-13.1,9.6-22.8,23.9-22.8C160.5,28.9,170.1,38.1,170.1,50.8z M153.6,51.9
		c0-5-3.2-7.8-7.4-7.8c-4.4,0-7.4,3-7.4,7.8c0,4.9,3.1,7.9,7.4,7.9C150.4,59.8,153.6,56.9,153.6,51.9z"/>
	<path class="st0" d="M200.9,46.5h6.2v14c-3.6,3-8.8,4.5-13.7,4.5c-10.9,0-18.9-7.6-18.9-18c0-10.5,8-18,19-18
		c5.9,0,10.8,2,14.1,5.7l-4.1,4c-2.8-2.8-5.9-4-9.7-4c-7.5,0-12.7,5-12.7,12.3c0,7.1,5.3,12.3,12.7,12.3c2.5,0,5-0.5,7.2-1.8v-11
		H200.9z"/>
	<path class="st0" d="M230.4,37.4v6c-0.6-0.1-1-0.1-1.5-0.1c-4.8,0-7.8,2.8-7.8,8.2v13h-6.3V37.8h6v3.9
		C222.7,38.8,226,37.4,230.4,37.4z"/>
	<path class="st0" d="M257.9,48.7v15.7H252v-3.2c-1.5,2.3-4.4,3.6-8.4,3.6c-6.1,0-10-3.3-10-8c0-4.5,3-8,11.1-8h6.9v-0.4
		c0-3.7-2.2-5.8-6.7-5.8c-3,0-6.1,1-8.1,2.7l-2.5-4.5c2.9-2.2,7-3.3,11.3-3.3C253.5,37.4,257.9,41,257.9,48.7z M251.7,56v-3.1h-6.5
		c-4.3,0-5.4,1.6-5.4,3.6c0,2.2,1.9,3.7,5.1,3.7C248,60.2,250.6,58.8,251.7,56z"/>
	<path class="st0" d="M292.2,49.1v15.3h-6.3V49.9c0-4.8-2.4-7.1-6.4-7.1c-4.5,0-7.5,2.7-7.5,8.1v13.5h-6.3V37.7h6v3.5
		c2-2.5,5.3-3.8,9.2-3.8C287.5,37.4,292.2,41,292.2,49.1z"/>
	<path class="st0" d="M298.3,46.9c0-10.5,8-18,18.8-18c5.7,0,10.6,2,13.9,5.9l-4.2,4c-2.6-2.8-5.7-4.1-9.4-4.1
		c-7.3,0-12.5,5.1-12.5,12.3s5.3,12.3,12.5,12.3c3.6,0,6.8-1.4,9.4-4.2l4.2,4c-3.3,3.8-8.2,5.9-13.9,5.9
		C306.3,64.9,298.3,57.3,298.3,46.9z"/>
	<path class="st0" d="M352,37.4v6c-0.6-0.1-1-0.1-1.5-0.1c-4.8,0-7.8,2.8-7.8,8.2v13h-6.2V37.8h6v3.9
		C344.3,38.8,347.5,37.4,352,37.4z"/>
	<path class="st0" d="M383.4,37.7v26.7h-6V61c-2,2.5-5.2,3.8-8.6,3.8c-6.9,0-11.5-3.8-11.5-11.8V37.8h6.2v14.4
		c0,4.9,2.3,7.2,6.3,7.2c4.4,0,7.3-2.7,7.3-8.1V37.8h6.3V37.7z"/>
	<path class="st0" d="M412.4,59.4v5h-23.1v-4L404,42.6h-14.4v-5H412v4l-14.7,17.8H412.4z"/>
	<path class="st0" d="M440.5,48.7v15.7h-5.9v-3.2c-1.5,2.3-4.4,3.6-8.4,3.6c-6.1,0-10-3.3-10-8c0-4.5,3-8,11.1-8h6.9v-0.4
		c0-3.7-2.2-5.8-6.7-5.8c-3,0-6.1,1-8.1,2.7l-2.5-4.5c2.9-2.2,7-3.3,11.3-3.3C436.1,37.4,440.5,41,440.5,48.7z M434.3,56v-3.1h-6.5
		c-4.2,0-5.4,1.6-5.4,3.6c0,2.2,1.9,3.7,5.1,3.7C430.6,60.2,433.2,58.8,434.3,56z"/>
	<path class="st0" d="M474.9,27.3v37.1h-6v-3.5c-2.1,2.5-5.2,3.8-8.9,3.8c-7.8,0-13.5-5.4-13.5-13.7s5.8-13.7,13.5-13.7
		c3.5,0,6.5,1.2,8.6,3.6V27.2h6.3V27.3z M468.8,51c0-5.1-3.5-8.4-8-8.4s-8,3.2-8,8.4c0,5.1,3.5,8.4,8,8.4S468.8,56.1,468.8,51z"/>
	<path class="st0" d="M505.5,48.7v15.7h-5.9v-3.2c-1.5,2.3-4.4,3.6-8.4,3.6c-6.1,0-10-3.3-10-8c0-4.5,3-8,11.1-8h6.9v-0.4
		c0-3.7-2.2-5.8-6.7-5.8c-3,0-6.1,1-8.1,2.7l-2.5-4.5c2.9-2.2,7-3.3,11.3-3.3C501,37.4,505.5,41,505.5,48.7z M499.2,56v-3.1h-6.5
		c-4.2,0-5.4,1.6-5.4,3.6c0,2.2,1.9,3.7,5.1,3.7C495.5,60.2,498.2,58.8,499.2,56z"/>
	<path class="st0" d="M538,46.5h6.2v14c-3.7,3-8.8,4.5-13.7,4.5c-10.9,0-18.9-7.6-18.9-18c0-10.5,8-18,19-18c5.9,0,10.8,2,14.1,5.7
		l-4.1,4c-2.8-2.8-5.9-4-9.7-4c-7.5,0-12.7,5-12.7,12.3c0,7.1,5.2,12.3,12.7,12.3c2.5,0,5-0.5,7.2-1.8L538,46.5L538,46.5z"/>
	<path class="st0" d="M559.8,34.9h-11.6v-5.5h29.7v5.5h-11.6v29.5h-6.5V34.9z"/>
</g>
</svg>
